<?xml version="1.0" encoding="UTF-8"?><svg id="Icons" xmlns="http://www.w3.org/2000/svg" viewBox="0 0 240 240"><defs><style>.cls-1{fill:#FFF;stroke-width:0px;}</style></defs><path class="cls-1" d="M120,40c-44.18,0-80,35.82-80,80s35.82,80,80,80,80-35.82,80-80-35.82-80-80-80ZM76.82,175.04c4.7-5.07,10.27-9.32,16.49-12.48,7.95-4.04,16.93-6.31,26.48-6.31,9.12,0,17.72,2.07,25.4,5.78,6.73,3.24,12.75,7.74,17.76,13.19-11.87,9.25-26.77,14.79-42.95,14.79s-31.27-5.6-43.18-14.96ZM170.38,168.52c-5.87-6.4-12.93-11.69-20.85-15.51-9-4.34-19.1-6.77-29.74-6.77-11.14,0-21.69,2.67-31.01,7.39-7.32,3.71-13.85,8.71-19.36,14.67-12.02-12.57-19.42-29.59-19.42-48.32,0-38.6,31.4-70,70-70s70,31.4,70,70c0,18.83-7.49,35.93-19.62,48.52Z"/><path class="cls-1" d="M120,87.67c-13.81,0-25,11.19-25,25s11.19,25,25,25,25-11.19,25-25-11.19-25-25-25ZM120,127.67c-8.27,0-15-6.73-15-15s6.73-15,15-15,15,6.73,15,15-6.73,15-15,15Z"/></svg>