<?xml version="1.0" encoding="UTF-8"?><svg id="Icons" xmlns="http://www.w3.org/2000/svg" viewBox="0 0 240 240"><defs><style>.cls-1{fill:#FFF;stroke-width:0px;}</style></defs><path class="cls-1" d="M157.62,94.06l-6.85-4.97c-1.17-1.25-2.99-2.53-5.51-4.3-2.51-1.76-4.98-3.39-5.08-3.46l-.06-.04-.07-.04c-.07-.04-.19-.11-.35-.2l-.95-.69c-.68-.47-1.48-.72-2.3-.72h-.25s-.99.08-.99.08c-.33-.03-.68-.05-1.03-.05h-.24c-1.93.04-37.26,2.75-46.34,3.45l-4.38.31c-2.13.13-3.78,1.9-3.78,4.03v53.44c0,.93.32,1.83.91,2.55l13.95,17.12c.77.94,1.92,1.49,3.13,1.49h.22s57.9-3.02,57.9-3.02c2.14-.12,3.81-1.89,3.81-4.03v-57.63c0-1.32-.65-2.56-1.73-3.31ZM87.17,88.17s.3-.02.84-.06l47.09-3.36c.89.13,1.59.4,1.97.58l10.25,7.44s.02.05.02.07c-.02.48-.37.56-.63.56-.14,0-.26-.03-.26-.03,0,0-42.55,2.56-46.96,2.9-.58.04-1.09.06-1.54.06-3.01,0-3.46-.85-3.46-.85,0,0-5.96-4.62-7.33-5.71-1.37-1.09,0-1.6,0-1.6ZM95.82,105.3c0-1.83,1.43-3.35,3.26-3.45l50.42-2.86h.2c1.89,0,3.45,1.53,3.45,3.45v47.3c0,1.83-1.43,3.35-3.26,3.45l-50.42,2.86h-.2c-1.89,0-3.45-1.53-3.45-3.45v-47.3Z"/><path class="cls-1" d="M108.66,113.88v31.61s-1.41.39-2.89.8c-1.48.41-1.12,2.57-1.12,2.57,0,0,9.77-.57,12.28-.66,2.52-.09,2.81-2.87,2.81-2.87l-4.98-1.12v-23.91s13.07,20.52,16.38,25.5c3.31,4.98,10.12.65,10.12.65v-35.3s1.14-.23,3-.65c1.86-.42.86-2.89.86-2.89,0,0-9.45.79-11.76.79s-1.89,3.07-1.89,3.07l4.18.48v22.14l-16.38-25.03s-8.41.57-11.88.8-2.73,3.69-2.73,3.69l4.01.32Z"/></svg>