<?xml version="1.0" encoding="UTF-8"?><svg id="Icons" xmlns="http://www.w3.org/2000/svg" viewBox="0 0 240 240"><defs><style>.cls-1{fill:#FFF;stroke-width:0px;}</style></defs><path class="cls-1" d="M155,97.33h-12.41c-1.62,0-3.14-.79-4.08-2.11l-3.01-4.25c-.94-1.32-2.46-2.11-4.08-2.11h-22.83c-1.62,0-3.14.79-4.08,2.11l-3.01,4.25c-.94,1.32-2.46,2.11-4.08,2.11h-12.41c-2.76,0-5,2.24-5,5v44c0,2.76,2.24,5,5,5h70c2.76,0,5-2.24,5-5v-44c0-2.76-2.24-5-5-5ZM120,135.61c-6.9,0-12.5-5.6-12.5-12.5s5.6-12.5,12.5-12.5,12.5,5.6,12.5,12.5-5.6,12.5-12.5,12.5Z"/></svg>