<?xml version="1.0" encoding="UTF-8"?><svg id="Icons" xmlns="http://www.w3.org/2000/svg" viewBox="0 0 240 240"><defs><style>.cls-1{fill:#000;stroke-width:0px;}</style></defs><path class="cls-1" d="M50.33,80h139.33c5.52,0,10-4.48,10-10s-4.48-10-10-10H50.33c-5.52,0-10,4.48-10,10s4.48,10,10,10ZM50.33,65h139.33c2.76,0,5,2.24,5,5s-2.24,5-5,5H50.33c-2.76,0-5-2.24-5-5s2.24-5,5-5Z"/><path class="cls-1" d="M189.67,110.01H50.33c-5.52,0-10,4.48-10,10s4.48,10,10,10h139.33c5.52,0,10-4.48,10-10s-4.48-10-10-10ZM189.67,125.01H50.33c-2.76,0-5-2.24-5-5s2.24-5,5-5h139.33c2.76,0,5,2.24,5,5s-2.24,5-5,5Z"/><path class="cls-1" d="M189.67,160H50.33c-5.52,0-10,4.48-10,10s4.48,10,10,10h139.33c5.52,0,10-4.48,10-10s-4.48-10-10-10ZM189.67,175H50.33c-2.76,0-5-2.24-5-5s2.24-5,5-5h139.33c2.76,0,5,2.24,5,5s-2.24,5-5,5Z"/></svg>