<?xml version="1.0" encoding="UTF-8"?><svg id="Icons" xmlns="http://www.w3.org/2000/svg" viewBox="0 0 240 240"><defs><style>.cls-1{fill:#000;stroke-width:0px;}</style></defs><path class="cls-1" d="M120,80c-22.09,0-40,17.91-40,40s17.91,40,40,40,40-17.91,40-40-17.91-40-40-40ZM142.89,126.51c.04.44.07.88.07,1.32,0,9.66-10.07,17.5-22.5,17.5s-22.5-7.84-22.5-17.5c0-.39.02-.78.05-1.16-3.2-.41-5.64-2.57-5.64-5.17,0-2.9,3.02-5.25,6.75-5.25,1.33,0,2.56.3,3.6.82,3.76-3.74,9.42-6.25,15.85-6.67l4.44-14.62,10.11,3.6c.87-1.15,2.23-1.91,3.78-1.91,2.62,0,4.75,2.13,4.75,4.75s-2.13,4.75-4.75,4.75-4.75-2.13-4.75-4.75h0s-7.19-2.56-7.19-2.56l-3.25,10.7c6.52.28,12.31,2.73,16.18,6.43.9-.34,1.9-.54,2.97-.54,3.73,0,6.75,2.35,6.75,5.25,0,2.35-1.99,4.35-4.74,5.01Z"/><circle class="cls-1" cx="110.46" cy="126.33" r="5"/><path class="cls-1" d="M129.24,135.65l-2.35,2.35h-13.76l-2.37-2.37c-.39-.39-1.02-.39-1.41,0s-.39,1.02,0,1.41l2.96,2.96h15.41l2.94-2.94c.39-.39.39-1.02,0-1.41-.39-.39-1.02-.39-1.41,0Z"/><circle class="cls-1" cx="129.54" cy="126.33" r="5"/></svg>