<svg width="99" height="62" viewBox="0 0 99 62" fill="none" xmlns="http://www.w3.org/2000/svg">
<g clip-path="url(#clip0_688_2354)">
<path d="M7.89784 20.8041C5.98114 20.8041 5.2164 20.0086 5.2164 18.7571H0.410156C0.502119 22.6279 3.4546 25.0435 7.89784 25.0435C12.3411 25.0435 15.3855 22.5406 15.3855 18.5728C15.3855 13.7222 11.7651 13.048 8.89974 12.529C7.04113 12.1943 5.52133 11.8887 5.52133 10.5742C5.52133 9.53619 6.22315 8.53212 7.9898 8.53212C9.75645 8.53212 10.4244 9.44403 10.4583 10.6082H15.0854C14.9305 6.82472 12.0991 4.29272 7.92688 4.29272C3.75469 4.29272 0.773166 6.97994 0.773166 10.7634C0.773166 15.614 4.39842 16.2882 7.2299 16.8072C9.05463 17.1419 10.5793 17.4475 10.5793 18.762C10.5793 20.0765 9.81937 20.8089 7.89784 20.8089V20.8041Z" fill="white"/>
<path d="M23.0913 16.8073H30.5548V24.6458H35.4869V4.69055H30.5548V12.2283H23.0913V7.2371L18.1641 4.69055V24.6458H23.0913V16.8073Z" fill="white"/>
<path d="M43.7055 4.5741H38.7734V24.5293H43.7055V4.5741Z" fill="white"/>
<path d="M64.043 24.6457V12.6842C64.043 7.52805 60.9986 4.29272 55.5196 4.29272C50.0405 4.29272 46.9961 7.52805 46.9961 12.6842V24.6457H51.9282V12.6842C51.9282 10.2444 53.085 8.87166 55.5196 8.87166C57.9541 8.87166 59.1158 10.2444 59.1158 12.6842V24.6457H64.0479H64.043Z" fill="white"/>
<path d="M79.9317 24.6215L72.1052 14.4305L79.6268 4.66626H73.5379L66.3164 14.445L73.6879 24.6215H79.9317Z" fill="white"/>
<path d="M8.93362 27.3281C3.4546 27.3281 0.410156 30.5635 0.410156 35.7196V47.6811H5.34225V35.7196C5.34225 33.2798 6.49904 31.9071 8.93362 31.9071C11.3682 31.9071 12.5298 33.2798 12.5298 35.7196V47.6811H17.4619V35.7196C17.4619 30.5635 14.4175 27.3281 8.93846 27.3281H8.93362Z" fill="white"/>
<path d="M30.5591 27.7211L26.629 34.7398L22.7036 27.7211H16.8906L24.1653 39.4109V47.6763H29.0974V39.2557L36.2511 27.7211H30.5591Z" fill="white"/>
<path d="M44.4278 27.3281C38.7649 27.3281 35.6914 30.6556 35.6914 36.0834V47.6763H40.5025V42.0011H48.2951V47.6763H53.2272V36.0834C53.2272 30.6508 50.1247 27.3281 44.4278 27.3281ZM48.2951 37.7277H40.5025V36.0786C40.5025 33.3331 41.7174 31.9022 44.3988 31.9022C47.0802 31.9022 48.2951 33.338 48.2951 36.0786V37.7277Z" fill="white"/>
<path d="M73.6613 27.3281C71.2557 27.3281 69.339 28.274 68.1484 30.0735C66.9625 28.274 65.0458 27.3281 62.6355 27.3281C58.6182 27.3281 55.5156 29.7098 55.5156 35.0502V47.6811H60.4477V35.0502C60.4477 32.7317 61.5755 31.9071 63.0662 31.9071C64.557 31.9071 65.6847 32.7317 65.6847 35.0502V47.6811H70.6168V35.0502C70.6168 32.7317 71.7736 31.9071 73.2353 31.9071C74.6971 31.9071 75.8539 32.7317 75.8539 35.0502V47.6811H80.7859V35.0502C80.7859 29.7098 77.6786 27.3281 73.6613 27.3281Z" fill="white"/>
<path d="M88.0727 39.5322H96.0783V35.5644H88.0727V32.3H95.3087L97.8449 27.7211H83.1406V47.6763H97.8449V43.1022H88.0727V39.5322Z" fill="white"/>
<path d="M88.9504 5.02515C83.3988 5.02515 78.9023 9.53618 78.9023 15.0949C78.9023 20.6585 83.4037 25.1647 88.9504 25.1647C94.5021 25.1647 98.9986 20.6537 98.9986 15.0949C98.9986 9.53133 94.4972 5.02515 88.9504 5.02515ZM88.9504 21.7839C84.9477 21.7839 82.1259 18.9511 82.1259 15.0998C82.1259 11.2484 84.9477 8.4157 88.9504 8.4157C92.9532 8.4157 95.775 11.2484 95.775 15.0998C95.775 18.9511 92.9532 21.7839 88.9504 21.7839Z" fill="#596DED"/>
<path d="M88.9536 11.3649C86.7755 11.3649 85.3477 12.9365 85.3477 15.0998C85.3477 17.2632 86.7803 18.8347 88.9536 18.8347C91.1268 18.8347 92.5643 17.2632 92.5643 15.0998C92.5643 12.9365 91.1316 11.3649 88.9536 11.3649Z" fill="#596DED"/>
<path d="M93.8224 3.10922L96.3634 0H81.543L84.084 3.10922H93.8224Z" fill="#596DED"/>
<path d="M7.41992 59.1721C7.41992 61.1802 5.96788 62 3.39293 62C2.23614 62 0.0484013 61.8351 0.0484013 61.8351V59.8075C0.0484013 59.8075 1.98929 60.0015 3.1606 60.0015C4.93693 60.0015 5.26606 59.5601 5.26606 58.7937V58.5464C5.26606 58.008 5.16926 57.518 4.19155 57.3871L2.39586 57.1591C0.992226 56.9796 0 55.9174 0 54.3167V53.3708C0 51.4597 1.45204 50.5914 3.83338 50.5914C4.76269 50.5914 6.24861 50.7224 6.88266 50.7709V52.8615C6.88266 52.8615 4.94177 52.6481 3.8963 52.6481C2.56043 52.6481 2.14902 52.9925 2.14902 53.7249V54.0014C2.14902 54.5398 2.24582 55.0491 3.20901 55.1607L5.06762 55.3886C6.47125 55.5681 7.41508 56.5673 7.41508 58.071V59.1672L7.41992 59.1721Z" fill="white"/>
<path d="M22.7324 52.716V61.8205H20.5785V52.716H17.7422V50.7709H25.5687V52.716H22.7324Z" fill="white"/>
<path d="M36.2422 58.5318V50.7709H38.396V58.0758C38.396 59.8075 39.456 60.0694 40.3708 60.0694C41.2856 60.0694 42.3456 59.8075 42.3456 58.0758V50.7709H44.4995V58.5318C44.4995 60.9522 42.5247 61.9951 40.3757 61.9951C38.2266 61.9951 36.2519 60.9474 36.2519 58.5318H36.2422Z" fill="white"/>
<path d="M64.031 59.3662C64.031 60.7243 63.0678 61.8157 61.5528 61.8157H56.1367V50.7661H61.5189C63.0339 50.7661 64.031 51.8623 64.031 53.2156V59.3613V59.3662ZM61.8965 54.0402C61.8965 53.0119 61.5383 52.7015 60.5122 52.7015H58.2954V59.8755H60.5122C61.5383 59.8755 61.8965 59.565 61.8965 58.5367V54.0402Z" fill="white"/>
<path d="M75.6797 61.8205V50.7709H77.8335V61.8205H75.6797Z" fill="white"/>
<path d="M97.8413 54.0402V58.5512C97.8413 61.1317 95.852 62 93.7175 62C91.583 62 89.5938 61.1317 89.5938 58.5512V54.0402C89.5938 51.4597 91.5976 50.5914 93.7175 50.5914C95.8375 50.5914 97.8413 51.4597 97.8413 54.0402ZM91.7428 54.7241V57.8285C91.7428 59.4971 92.4301 60.0015 93.7175 60.0015C95.005 60.0015 95.6923 59.5116 95.6923 57.8285V54.7241C95.6923 53.0555 95.005 52.5656 93.7175 52.5656C92.4301 52.5656 91.7428 53.0555 91.7428 54.7241Z" fill="white"/>
</g>
<defs>
<clipPath id="clip0_688_2354">
<rect width="99" height="62" fill="white"/>
</clipPath>
</defs>
</svg>
