<svg width="169" height="30" viewBox="0 0 169 30" fill="none" xmlns="http://www.w3.org/2000/svg">
<path d="M8.85094 24.6193C6.58528 24.6193 5.68131 23.6779 5.68131 22.197H0C0.108706 26.7776 3.59873 29.6361 8.85094 29.6361C14.1031 29.6361 17.7019 26.6742 17.7019 21.9789C17.7019 16.2388 13.4223 15.4409 10.0353 14.8267C7.83826 14.4307 6.04175 14.069 6.04175 12.5135C6.04175 11.2851 6.87135 10.0969 8.95964 10.0969C11.0479 10.0969 11.8375 11.176 11.8775 12.5537H17.3471C17.1641 8.0764 13.8171 5.08008 8.88526 5.08008C3.95346 5.08008 0.429102 8.26008 0.429102 12.7373C0.429102 18.4774 4.7144 19.2753 8.06139 19.8895C10.2183 20.2855 12.0206 20.6472 12.0206 22.2027C12.0206 23.7583 11.1223 24.625 8.85094 24.625V24.6193Z" fill="black"/>
<path d="M26.8102 19.8895H35.6325V29.1655H41.4626V5.55078H35.6325V14.4709H26.8102V5.55078H20.9858V29.1655H26.8102V19.8895Z" fill="black"/>
<path d="M51.1775 5.41309H45.3474V29.0278H51.1775V5.41309Z" fill="black"/>
<path d="M75.2187 29.1654V15.0104C75.2187 8.90871 71.62 5.08008 65.1434 5.08008C58.6668 5.08008 55.0681 8.90871 55.0681 15.0104V29.1654H60.8982V15.0104C60.8982 12.1232 62.2656 10.4987 65.1434 10.4987C68.0213 10.4987 69.3944 12.1232 69.3944 15.0104V29.1654H75.2245H75.2187Z" fill="black"/>
<path d="M93.996 29.1366L84.7446 17.0767L93.6356 5.52197H86.4381L77.9019 17.094L86.6155 29.1366H93.996Z" fill="black"/>
<path d="M104.661 5.94678C98.0983 5.94678 92.7832 11.285 92.7832 17.8632C92.7832 24.447 98.1041 29.7796 104.661 29.7796C111.223 29.7796 116.538 24.4413 116.538 17.8632C116.538 11.2793 111.217 5.94678 104.661 5.94678ZM104.661 25.7787C99.9292 25.7787 96.5936 22.4265 96.5936 17.8689C96.5936 13.3113 99.9292 9.95909 104.661 9.95909C109.392 9.95909 112.728 13.3113 112.728 17.8689C112.728 22.4265 109.392 25.7787 104.661 25.7787Z" fill="#0C68E9"/>
<path d="M104.661 13.449C102.086 13.449 100.398 15.3088 100.398 17.8688C100.398 20.4289 102.092 22.2887 104.661 22.2887C107.23 22.2887 108.929 20.4289 108.929 17.8688C108.929 15.3088 107.235 13.449 104.661 13.449Z" fill="black"/>
<path d="M110.416 3.67939L113.42 0H95.9014L98.9051 3.67939H110.416Z" fill="#0C68E9"/>
<path d="M121.109 6.99934H122.626V28.6207H129.04V30H121.109V6.99934ZM148.333 30L145.264 22.4481H135.471L132.401 30H130.746L140.436 6.30967L149.988 30H148.333ZM136.022 21.0687H144.712L140.402 10.1718L136.022 21.0687ZM153.572 30V6.99934H158.607C162.607 6.99934 164.952 9.30976 164.952 12.7581C164.952 15.241 163.78 16.8617 162.262 17.7928C165.262 18.2755 167.021 20.5859 167.021 23.5515C167.021 27.5861 164.055 30 159.883 30H153.572ZM155.09 8.3787V17.4134H158.745C159.917 17.4134 160.883 17.2755 161.883 16.4479C162.814 15.6892 163.4 14.5168 163.4 12.9305C163.4 11.1029 162.607 9.96495 161.848 9.34424C160.71 8.44766 159.228 8.3787 158.021 8.3787H155.09ZM155.09 18.7928V28.6207H158.952C160.504 28.6207 162.4 28.6207 163.952 27.2413C165.193 26.1378 165.435 24.793 165.435 23.724C165.435 21.6549 164.711 20.2411 162.986 19.448C162.366 19.1721 161.228 18.7928 158.676 18.7928H155.09Z" fill="black"/>
</svg>
