<svg width="186" height="59" viewBox="0 0 186 59" fill="none" xmlns="http://www.w3.org/2000/svg">
<path d="M8.78698 44.4722C6.5377 44.4722 5.64025 43.5376 5.64025 42.0674H0C0.10792 46.6149 3.57273 49.4528 8.78698 49.4528C14.0012 49.4528 17.574 46.5123 17.574 41.8508C17.574 36.1522 13.3253 35.3601 9.96274 34.7504C7.78162 34.3572 5.9981 33.9982 5.9981 32.4538C5.9981 31.2343 6.8217 30.0547 8.8949 30.0547C10.9681 30.0547 11.752 31.1261 11.7917 32.4937H17.2218C17.04 28.0488 13.7172 25.0742 8.82106 25.0742C3.92489 25.0742 0.426001 28.2312 0.426001 32.6761C0.426001 38.3747 4.68033 39.1668 8.00314 39.7765C10.1445 40.1698 11.9337 40.5288 11.9337 42.0731C11.9337 43.6174 11.0419 44.4779 8.78698 44.4779V44.4722Z" fill="white"/>
<path d="M26.6162 39.7765H35.3748V48.9854H41.1628V25.5414H35.3748V34.397H26.6162V28.5331L20.834 25.5414V48.9854H26.6162V39.7765Z" fill="white"/>
<path d="M50.8075 25.4046H45.0195V48.8487H50.8075V25.4046Z" fill="white"/>
<path d="M74.6749 48.9855V34.9327C74.6749 28.8751 71.1022 25.0742 64.6724 25.0742C58.2427 25.0742 54.6699 28.8751 54.6699 34.9327V48.9855H60.4579V34.9327C60.4579 32.0663 61.8154 30.4536 64.6724 30.4536C67.5295 30.4536 68.8927 32.0663 68.8927 34.9327V48.9855H74.6806H74.6749Z" fill="white"/>
<path d="M93.3177 48.9569L84.1331 36.9842L92.9599 25.5129H85.8144L77.3398 37.0013L85.9905 48.9569H93.3177Z" fill="white"/>
<path d="M103.905 25.9346C97.39 25.9346 92.1133 31.2343 92.1133 37.7649C92.1133 44.3012 97.3957 49.5952 103.905 49.5952C110.42 49.5952 115.697 44.2955 115.697 37.7649C115.697 31.2286 110.414 25.9346 103.905 25.9346ZM103.905 45.6233C99.2076 45.6233 95.8962 42.2953 95.8962 37.7706C95.8962 33.2459 99.2076 29.918 103.905 29.918C108.602 29.918 111.914 33.2459 111.914 37.7706C111.914 42.2953 108.602 45.6233 103.905 45.6233Z" fill="#596DED"/>
<path d="M103.903 33.3827C101.347 33.3827 99.6719 35.229 99.6719 37.7706C99.6719 40.3122 101.353 42.1585 103.903 42.1585C106.454 42.1585 108.141 40.3122 108.141 37.7706C108.141 35.229 106.459 33.3827 103.903 33.3827Z" fill="#596DED"/>
<path d="M109.619 23.6837L112.601 20.0309H95.209L98.191 23.6837H109.619Z" fill="#596DED"/>
<path d="M120.233 26.0976H121.74V47.5627H128.107V48.9321H120.233V26.0976ZM147.261 48.9321L144.214 41.4347H134.491L131.444 48.9321H129.801L139.421 25.413L148.904 48.9321H147.261ZM135.039 40.0653H143.666L139.387 29.2472L135.039 40.0653ZM152.462 48.9321V26.0976H157.46C161.432 26.0976 163.759 28.3914 163.759 31.8148C163.759 34.2797 162.596 35.8887 161.089 36.8131C164.068 37.2923 165.814 39.5861 165.814 42.5302C165.814 46.5357 162.869 48.9321 158.727 48.9321H152.462ZM153.968 27.467V36.4365H157.597C158.761 36.4365 159.72 36.2995 160.713 35.4779C161.637 34.7248 162.219 33.5608 162.219 31.986C162.219 30.1716 161.432 29.0418 160.678 28.4256C159.549 27.5355 158.077 27.467 156.878 27.467H153.968ZM153.968 37.8059V47.5627H157.803C159.343 47.5627 161.226 47.5627 162.767 46.1933C163.999 45.0978 164.239 43.7627 164.239 42.7014C164.239 40.6473 163.52 39.2437 161.808 38.4563C161.192 38.1824 160.062 37.8059 157.529 37.8059H153.968ZM182.252 29.0418L181.157 29.9661C179.753 27.2274 177.288 27.1589 176.672 27.1589C173.968 27.1589 172.427 29.1103 172.427 31.404C172.427 33.8689 174.139 34.6905 176.432 35.8203C178.692 36.9158 179.822 37.395 180.986 38.2167C181.978 38.9014 183.416 40.0996 183.416 42.6329C183.416 46.4672 180.198 49.3087 176.295 49.3087C173.351 49.3087 171.845 47.9051 170.989 46.9123C170.099 45.8852 169.722 44.9951 169.517 44.4131L170.818 43.7969C171.126 44.687 171.708 45.5771 172.05 45.9879C173.077 47.2888 174.755 47.9393 176.33 47.9393C179.411 47.9393 181.841 45.6798 181.841 42.6672C181.841 41.4347 181.362 40.1338 179.616 39.0725C178.966 38.696 177.631 38.0113 175.748 37.0869C173.488 35.9914 172.359 35.3752 171.571 34.0743C171.058 33.2184 170.852 32.3626 170.852 31.4725C170.852 28.8364 172.632 25.7895 176.706 25.7895C179 25.7895 181.088 26.885 182.252 29.0418Z" fill="white"/>
<path d="M103.854 3.76825L112.421 18.6057H95.2881L103.854 3.76825Z" fill="white"/>
<rect x="101.5" y="3.76825" width="4.71029" height="7.77198" fill="white"/>
<path d="M107.522 2.36215L109.45 0H98.2031L100.131 2.36215H107.522Z" fill="#596DED"/>
</svg>
