<svg width="145" height="48" viewBox="0 0 145 48" fill="none" xmlns="http://www.w3.org/2000/svg">
<path d="M6.53057 31.1788C4.85888 31.1788 4.19189 30.4842 4.19189 29.3915H0C0.0802073 32.7713 2.65528 34.8804 6.53057 34.8804C10.4058 34.8804 13.0611 32.695 13.0611 29.2306C13.0611 24.9954 9.9035 24.4067 7.4044 23.9535C5.78337 23.6612 4.45784 23.3944 4.45784 22.2467C4.45784 21.3403 5.06995 20.4636 6.61077 20.4636C8.1516 20.4636 8.73416 21.2599 8.76371 22.2763H12.7994C12.6643 18.9728 10.1948 16.762 6.55589 16.762C2.91701 16.762 0.316608 19.1084 0.316608 22.4118C0.316608 26.6471 3.47847 27.2358 5.94801 27.689C7.53949 27.9812 8.86924 28.248 8.86924 29.3958C8.86924 30.5435 8.20648 31.1831 6.53057 31.1831V31.1788Z" fill="#3D3D3D"/>
<path d="M19.7818 27.6889H26.2913V34.5331H30.5929V17.1093H26.2913V23.6908H19.7818V19.3328L15.4844 17.1093V34.5331H19.7818V27.6889Z" fill="#3D3D3D"/>
<path d="M37.7626 17.0076H33.4609V34.4315H37.7626V17.0076Z" fill="#3D3D3D"/>
<path d="M55.4968 34.5331V24.0889C55.4968 19.5869 52.8415 16.762 48.0629 16.762C43.2842 16.762 40.6289 19.5869 40.6289 24.0889V34.5331H44.9306V24.0889C44.9306 21.9586 45.9395 20.76 48.0629 20.76C50.1862 20.76 51.1994 21.9586 51.1994 24.0889V34.5331H55.501H55.4968Z" fill="#3D3D3D"/>
<path d="M69.3554 34.5119L62.5293 25.6136L69.0894 17.0881H63.7789L57.4805 25.6263L63.9097 34.5119H69.3554Z" fill="#3D3D3D"/>
<path d="M77.2246 17.4015C72.3827 17.4015 68.4609 21.3403 68.4609 26.1939C68.4609 31.0517 72.3869 34.9863 77.2246 34.9863C82.0666 34.9863 85.9883 31.0475 85.9883 26.1939C85.9883 21.336 82.0624 17.4015 77.2246 17.4015ZM77.2246 32.0343C73.7335 32.0343 71.2724 29.5609 71.2724 26.1981C71.2724 22.8353 73.7335 20.3619 77.2246 20.3619C80.7158 20.3619 83.1769 22.8353 83.1769 26.1981C83.1769 29.5609 80.7158 32.0343 77.2246 32.0343Z" fill="#596DED"/>
<path d="M77.2231 22.937C75.3234 22.937 74.0781 24.3092 74.0781 26.1981C74.0781 28.087 75.3277 29.4592 77.2231 29.4592C79.1185 29.4592 80.3723 28.087 80.3723 26.1981C80.3723 24.3092 79.1227 22.937 77.2231 22.937Z" fill="#596DED"/>
<path d="M81.4715 15.7286L83.6878 13.0138H70.7617L72.978 15.7286H81.4715Z" fill="#596DED"/>
<path d="M134.805 19.6223L133.991 20.3093C132.947 18.2738 131.116 18.2229 130.658 18.2229C128.647 18.2229 127.503 19.6732 127.503 21.3779C127.503 23.2099 128.775 23.8205 130.479 24.6601C132.159 25.4743 132.998 25.8305 133.863 26.4412C134.601 26.95 135.67 27.8406 135.67 29.7234C135.67 32.573 133.278 34.6848 130.378 34.6848C128.19 34.6848 127.07 33.6417 126.434 32.9038C125.772 32.1405 125.493 31.479 125.34 31.0464L126.307 30.5885C126.536 31.25 126.968 31.9115 127.223 32.2168C127.986 33.1837 129.233 33.6671 130.403 33.6671C132.693 33.6671 134.499 31.9878 134.499 29.7488C134.499 28.8329 134.143 27.866 132.846 27.0773C132.362 26.7974 131.37 26.2885 129.971 25.6015C128.291 24.7873 127.452 24.3294 126.866 23.3625C126.485 22.7264 126.332 22.0903 126.332 21.4288C126.332 19.4697 127.655 17.2052 130.683 17.2052C132.388 17.2052 133.94 18.0194 134.805 19.6223Z" fill="#3D3D3D"/>
<path d="M112.664 34.405V17.4342H116.379C119.33 17.4342 121.06 19.1389 121.06 21.6833C121.06 23.5152 120.195 24.711 119.076 25.398C121.289 25.7542 122.587 27.4589 122.587 29.6471C122.587 32.6239 120.399 34.405 117.32 34.405H112.664ZM113.784 18.4519V25.1181H116.481C117.346 25.1181 118.058 25.0163 118.796 24.4057C119.483 23.846 119.915 22.9809 119.915 21.8105C119.915 20.462 119.33 19.6223 118.77 19.1644C117.931 18.5028 116.837 18.4519 115.946 18.4519H113.784ZM113.784 26.1359V33.3872H116.633C117.778 33.3872 119.178 33.3872 120.323 32.3695C121.238 31.5553 121.417 30.563 121.417 29.7743C121.417 28.2477 120.882 27.2045 119.61 26.6193C119.152 26.4157 118.313 26.1359 116.43 26.1359H113.784Z" fill="#3D3D3D"/>
<path d="M108.8 34.405L106.536 28.8329H99.31L97.0455 34.405H95.8242L102.974 16.9254L110.022 34.405H108.8ZM99.7171 27.8151H106.129L102.948 19.775L99.7171 27.8151Z" fill="#3D3D3D"/>
<path d="M88.7109 17.4342H89.8304V33.3872H94.5629V34.405H88.7109V17.4342Z" fill="#3D3D3D"/>
</svg>
