<svg width="114" height="62" viewBox="0 0 114 62" fill="none" xmlns="http://www.w3.org/2000/svg">
<mask id="path-1-inside-1_10175_2523" fill="white">
<path d="M0 0H113.598V62H0V0Z"/>
</mask>
<path d="M112.598 0V62H114.598V0H112.598Z" fill="#D6D6D6" mask="url(#path-1-inside-1_10175_2523)"/>
<path d="M4.69601 36.1621C3.49393 36.1621 3.01431 35.6626 3.01431 34.8769H0C0.0576756 37.3072 1.90937 38.8238 4.69601 38.8238C7.48266 38.8238 9.39202 37.2523 9.39202 34.7611C9.39202 31.7156 7.12142 31.2923 5.32437 30.9664C4.15872 30.7563 3.20555 30.5644 3.20555 29.7391C3.20555 29.0874 3.64571 28.457 4.75369 28.457C5.86167 28.457 6.28057 29.0295 6.30182 29.7604H9.20382C9.10668 27.3849 7.33088 25.7952 4.71423 25.7952C2.09757 25.7952 0.227667 27.4824 0.227667 29.8579C0.227667 32.9034 2.5013 33.3267 4.2771 33.6526C5.42151 33.8627 6.37771 34.0546 6.37771 34.8799C6.37771 35.7052 5.90113 36.1651 4.69601 36.1651V36.1621Z" fill="#B0B6BE"/>
<path d="M14.2247 33.6525H18.9056V38.574H21.9988V26.0449H18.9056V30.7776H14.2247V27.6438L11.1345 26.0449V38.574H14.2247V33.6525Z" fill="#B0B6BE"/>
<path d="M27.1531 25.9718H24.0598V38.5009H27.1531V25.9718Z" fill="#B0B6BE"/>
<path d="M39.908 38.5741V31.0639C39.908 27.8265 37.9987 25.7952 34.5624 25.7952C31.1262 25.7952 29.2168 27.8265 29.2168 31.0639V38.5741H32.31V31.0639C32.31 29.532 33.0355 28.6701 34.5624 28.6701C36.0893 28.6701 36.8178 29.532 36.8178 31.0639V38.5741H39.9111H39.908Z" fill="#B0B6BE"/>
<path d="M49.8723 38.5588L44.9638 32.1602L49.681 26.0296H45.8623L41.3333 32.1693L45.9564 38.5588H49.8723Z" fill="#B0B6BE"/>
<path d="M55.5308 26.2551C52.049 26.2551 49.229 29.0874 49.229 32.5775C49.229 36.0707 52.0521 38.9 55.5308 38.9C59.0126 38.9 61.8326 36.0676 61.8326 32.5775C61.8326 29.0843 59.0096 26.2551 55.5308 26.2551ZM55.5308 36.7772C53.0204 36.7772 51.2507 34.9987 51.2507 32.5806C51.2507 30.1624 53.0204 28.3839 55.5308 28.3839C58.0412 28.3839 59.811 30.1624 59.811 32.5806C59.811 34.9987 58.0412 36.7772 55.5308 36.7772Z" fill="#D9DCFF"/>
<path d="M55.5298 30.2354C54.1638 30.2354 53.2683 31.2222 53.2683 32.5804C53.2683 33.9387 54.1668 34.9255 55.5298 34.9255C56.8928 34.9255 57.7943 33.9387 57.7943 32.5804C57.7943 31.2222 56.8958 30.2354 55.5298 30.2354Z" fill="#D9DCFF"/>
<path d="M58.5833 25.0522L60.177 23.1H50.8821L52.4757 25.0522H58.5833Z" fill="#D9DCFF"/>
<path d="M96.9753 26.5541L96.3898 27.0481C95.6397 25.5844 94.3224 25.5478 93.993 25.5478C92.5477 25.5478 91.7243 26.5907 91.7243 27.8165C91.7243 29.1338 92.6391 29.5729 93.865 30.1767C95.0725 30.7622 95.6763 31.0183 96.2983 31.4574C96.8289 31.8233 97.5973 32.4637 97.5973 33.8176C97.5973 35.8667 95.8775 37.3853 93.7918 37.3853C92.2183 37.3853 91.4133 36.6351 90.9559 36.1046C90.4802 35.5557 90.279 35.08 90.1692 34.769L90.8644 34.4396C91.0291 34.9153 91.3401 35.391 91.5231 35.6106C92.072 36.3058 92.9685 36.6534 93.8101 36.6534C95.4567 36.6534 96.7557 35.4459 96.7557 33.8359C96.7557 33.1772 96.4996 32.482 95.5665 31.9148C95.2189 31.7135 94.5053 31.3476 93.499 30.8536C92.2915 30.2682 91.6878 29.9388 91.2669 29.2436C90.9925 28.7862 90.8827 28.3288 90.8827 27.8531C90.8827 26.4443 91.8341 24.816 94.0113 24.816C95.2372 24.816 96.3532 25.4014 96.9753 26.5541Z" fill="#B0B6BE"/>
<path d="M81.0542 37.1841V24.9807H83.7254C85.8477 24.9807 87.0919 26.2065 87.0919 28.0361C87.0919 29.3534 86.4698 30.2133 85.6648 30.7073C87.2565 30.9635 88.1896 32.1893 88.1896 33.7628C88.1896 35.9034 86.6162 37.1841 84.4024 37.1841H81.0542ZM81.8592 25.7126V30.5061H83.7986C84.4206 30.5061 84.9329 30.4329 85.4635 29.9938C85.9575 29.5913 86.2685 28.9692 86.2685 28.1276C86.2685 27.1579 85.8477 26.5542 85.4452 26.2248C84.8415 25.7491 84.0547 25.7126 83.4144 25.7126H81.8592ZM81.8592 31.2379V36.4523H83.9084C84.7317 36.4523 85.738 36.4523 86.5613 35.7204C87.2199 35.1349 87.348 34.4214 87.348 33.8542C87.348 32.7565 86.9638 32.0063 86.049 31.5855C85.7197 31.4392 85.1159 31.2379 83.762 31.2379H81.8592Z" fill="#B0B6BE"/>
<path d="M78.276 37.184L76.6477 33.1772H71.4516L69.8233 37.184H68.9451L74.0862 24.6147L79.1542 37.184H78.276ZM71.7443 32.4454H76.3549L74.0679 26.6639L71.7443 32.4454Z" fill="#B0B6BE"/>
<path d="M63.8313 24.9807H64.6363V36.4523H68.0394V37.1841H63.8313V24.9807Z" fill="#B0B6BE"/>
</svg>
