<svg width="114" height="62" viewBox="0 0 114 62" fill="none" xmlns="http://www.w3.org/2000/svg">
<mask id="path-1-inside-1_2158_1222" fill="white">
<path d="M0 0H113.598V62H0V0Z"/>
</mask>
<path d="M112.598 0V62H114.598V0H112.598Z" fill="#D6D6D6" mask="url(#path-1-inside-1_2158_1222)"/>
<path d="M4.69601 36.1623C3.49393 36.1623 3.01431 35.6628 3.01431 34.8771H0C0.0576756 37.3074 1.90937 38.824 4.69601 38.824C7.48266 38.824 9.39202 37.2526 9.39202 34.7613C9.39202 31.7158 7.12142 31.2925 5.32437 30.9667C4.15872 30.7565 3.20555 30.5647 3.20555 29.7393C3.20555 29.0876 3.64571 28.4572 4.75369 28.4572C5.86167 28.4572 6.28057 29.0297 6.30182 29.7606H9.20382C9.10668 27.3852 7.33088 25.7954 4.71423 25.7954C2.09757 25.7954 0.227667 27.4826 0.227667 29.8581C0.227667 32.9036 2.5013 33.3269 4.2771 33.6528C5.42151 33.8629 6.37771 34.0548 6.37771 34.8801C6.37771 35.7054 5.90113 36.1653 4.69601 36.1653V36.1623Z" fill="#3D3D3D"/>
<path d="M14.2247 33.6526H18.9056V38.5741H21.9988V26.0449H18.9056V30.7776H14.2247V27.6438L11.1345 26.0449V38.5741H14.2247V33.6526Z" fill="#3D3D3D"/>
<path d="M27.1531 25.9719H24.0598V38.5011H27.1531V25.9719Z" fill="#3D3D3D"/>
<path d="M39.9082 38.5743V31.0641C39.9082 27.8268 37.9988 25.7954 34.5625 25.7954C31.1263 25.7954 29.2169 27.8268 29.2169 31.0641V38.5743H32.3102V31.0641C32.3102 29.5322 33.0357 28.6704 34.5625 28.6704C36.0894 28.6704 36.818 29.5322 36.818 31.0641V38.5743H39.9112H39.9082Z" fill="#3D3D3D"/>
<path d="M49.8723 38.5589L44.9638 32.1604L49.681 26.0298H45.8623L41.3333 32.1695L45.9564 38.5589H49.8723Z" fill="#3D3D3D"/>
<path d="M55.5308 26.2551C52.049 26.2551 49.229 29.0874 49.229 32.5776C49.229 36.0708 52.0521 38.9 55.5308 38.9C59.0126 38.9 61.8326 36.0677 61.8326 32.5776C61.8326 29.0844 59.0096 26.2551 55.5308 26.2551ZM55.5308 36.7773C53.0204 36.7773 51.2507 34.9987 51.2507 32.5806C51.2507 30.1625 53.0204 28.3839 55.5308 28.3839C58.0412 28.3839 59.811 30.1625 59.811 32.5806C59.811 34.9987 58.0412 36.7773 55.5308 36.7773Z" fill="#596DED"/>
<path d="M55.5297 30.2356C54.1637 30.2356 53.2682 31.2223 53.2682 32.5806C53.2682 33.9389 54.1667 34.9257 55.5297 34.9257C56.8926 34.9257 57.7942 33.9389 57.7942 32.5806C57.7942 31.2223 56.8957 30.2356 55.5297 30.2356Z" fill="#596DED"/>
<path d="M58.5833 25.0523L60.177 23.1001H50.8821L52.4757 25.0523H58.5833Z" fill="#596DED"/>
<path d="M96.9751 26.554L96.3897 27.048C95.6395 25.5843 94.3222 25.5478 93.9929 25.5478C92.5475 25.5478 91.7242 26.5906 91.7242 27.8164C91.7242 29.1338 92.639 29.5729 93.8648 30.1766C95.0724 30.7621 95.6761 31.0182 96.2982 31.4573C96.8288 31.8233 97.5972 32.4636 97.5972 33.8175C97.5972 35.8667 95.8774 37.3852 93.7917 37.3852C92.2182 37.3852 91.4132 36.6351 90.9558 36.1045C90.4801 35.5556 90.2788 35.0799 90.1691 34.7689L90.8643 34.4396C91.029 34.9153 91.34 35.391 91.523 35.6105C92.0718 36.3058 92.9683 36.6534 93.81 36.6534C95.4566 36.6534 96.7556 35.4458 96.7556 33.8358C96.7556 33.1772 96.4995 32.4819 95.5664 31.9147C95.2187 31.7135 94.5052 31.3476 93.4989 30.8536C92.2914 30.2681 91.6876 29.9388 91.2668 29.2435C90.9924 28.7861 90.8826 28.3287 90.8826 27.853C90.8826 26.4443 91.834 24.8159 94.0112 24.8159C95.237 24.8159 96.3531 25.4014 96.9751 26.554Z" fill="#3D3D3D"/>
<path d="M81.0542 37.1841V24.9807H83.7254C85.8477 24.9807 87.0919 26.2065 87.0919 28.0361C87.0919 29.3534 86.4698 30.2133 85.6648 30.7073C87.2565 30.9635 88.1896 32.1893 88.1896 33.7628C88.1896 35.9034 86.6162 37.1841 84.4024 37.1841H81.0542ZM81.8592 25.7126V30.5061H83.7986C84.4206 30.5061 84.9329 30.4329 85.4635 29.9938C85.9575 29.5913 86.2685 28.9692 86.2685 28.1276C86.2685 27.1579 85.8477 26.5542 85.4452 26.2248C84.8415 25.7491 84.0547 25.7126 83.4144 25.7126H81.8592ZM81.8592 31.2379V36.4523H83.9084C84.7317 36.4523 85.738 36.4523 86.5613 35.7204C87.2199 35.1349 87.348 34.4214 87.348 33.8542C87.348 32.7565 86.9638 32.0063 86.049 31.5855C85.7197 31.4392 85.1159 31.2379 83.762 31.2379H81.8592Z" fill="#3D3D3D"/>
<path d="M78.276 37.184L76.6477 33.1772H71.4516L69.8233 37.184H68.9451L74.0862 24.6147L79.1542 37.184H78.276ZM71.7443 32.4454H76.3549L74.0679 26.6639L71.7443 32.4454Z" fill="#3D3D3D"/>
<path d="M63.8313 24.9807H64.6363V36.4523H68.0394V37.1841H63.8313V24.9807Z" fill="#3D3D3D"/>
</svg>
