<svg width="336" height="114" viewBox="0 0 336 114" fill="none" xmlns="http://www.w3.org/2000/svg">
<path d="M16.1567 74.7606C12.0209 74.7606 10.3708 73.0422 10.3708 70.3389H0C0.198434 78.7004 6.56921 83.9184 16.1567 83.9184C25.7442 83.9184 32.3134 78.5118 32.3134 69.9407C32.3134 59.4626 24.5014 58.0062 18.3186 56.885C14.3081 56.162 11.0288 55.5019 11.0288 52.6624C11.0288 50.4201 12.5431 48.2511 16.3551 48.2511C20.1672 48.2511 21.6084 50.221 21.6815 52.7357H31.6659C31.3317 44.5628 25.222 39.0933 16.2194 39.0933C7.21673 39.0933 0.783292 44.8981 0.783292 53.071C0.783292 63.5491 8.60577 65.0055 14.7155 66.1267C18.6528 66.8497 21.9426 67.5098 21.9426 70.3493C21.9426 73.1889 20.3029 74.7711 16.1567 74.7711V74.7606Z" fill="black"/>
<path d="M48.9424 66.1266H65.0469V83.0591H75.6893V39.9523H65.0469V56.2353H48.9424V45.4533L38.3105 39.9523V83.0591H48.9424V66.1266Z" fill="black"/>
<path d="M93.4236 39.7009H82.7812V82.8077H93.4236V39.7009Z" fill="black"/>
<path d="M137.305 83.0591V57.2202C137.305 46.082 130.736 39.0931 118.913 39.0931C107.091 39.0931 100.521 46.082 100.521 57.2202V83.0591H111.164V57.2202C111.164 51.9497 113.66 48.9844 118.913 48.9844C124.166 48.9844 126.673 51.9497 126.673 57.2202V83.0591H137.315H137.305Z" fill="black"/>
<path d="M171.588 83.0067L154.7 60.9923L170.93 39.9H157.791L142.209 61.0238L158.115 83.0067H171.588Z" fill="black"/>
<path d="M191.057 40.6753C179.077 40.6753 169.375 50.4199 169.375 62.4278C169.375 74.4461 179.088 84.1803 191.057 84.1803C203.036 84.1803 212.738 74.4356 212.738 62.4278C212.738 50.4094 203.025 40.6753 191.057 40.6753ZM191.057 76.877C182.419 76.877 176.331 70.7578 176.331 62.4383C176.331 54.1187 182.419 47.9995 191.057 47.9995C199.694 47.9995 205.782 54.1187 205.782 62.4383C205.782 70.7578 199.694 76.877 191.057 76.877Z" fill="#596DED"/>
<path d="M191.052 54.3702C186.352 54.3702 183.271 57.7651 183.271 62.4383C183.271 67.1115 186.363 70.5064 191.052 70.5064C195.741 70.5064 198.843 67.1115 198.843 62.4383C198.843 57.7651 195.752 54.3702 191.052 54.3702Z" fill="#596DED"/>
<path d="M201.559 36.5365L207.042 29.8201H175.062L180.546 36.5365H201.559Z" fill="#596DED"/>
<path d="M333.5 46.1696L331.486 47.8692C328.905 42.8334 324.373 42.7075 323.24 42.7075C318.267 42.7075 315.435 46.2955 315.435 50.513C315.435 55.0452 318.582 56.556 322.799 58.6332C326.954 60.6476 329.031 61.5288 331.171 63.0396C332.997 64.2985 335.641 66.5017 335.641 71.1598C335.641 78.2099 329.724 83.4345 322.548 83.4345C317.134 83.4345 314.364 80.8537 312.791 79.0282C311.154 77.1398 310.462 75.5031 310.084 74.433L312.476 73.3C313.043 74.9366 314.113 76.5733 314.742 77.3286C316.631 79.7206 319.715 80.9166 322.611 80.9166C328.276 80.9166 332.745 76.7621 332.745 71.2227C332.745 68.9566 331.864 66.5646 328.653 64.6132C327.457 63.9208 325.003 62.6619 321.54 60.9623C317.386 58.948 315.309 57.8149 313.861 55.4229C312.917 53.8492 312.539 52.2755 312.539 50.6389C312.539 45.792 315.812 40.1896 323.303 40.1896C327.52 40.1896 331.36 42.204 333.5 46.1696Z" fill="black"/>
<path d="M278.725 82.7421V40.7562H287.915C295.217 40.7562 299.497 44.9736 299.497 51.2684C299.497 55.8006 297.357 58.7591 294.587 60.4587C300.064 61.34 303.274 65.5575 303.274 70.9709C303.274 78.3358 297.861 82.7421 290.244 82.7421H278.725ZM281.494 43.2741V59.7663H288.167C290.307 59.7663 292.069 59.5145 293.895 58.0038C295.595 56.6189 296.665 54.4787 296.665 51.5831C296.665 48.2469 295.217 46.1696 293.832 45.0366C291.755 43.4 289.048 43.2741 286.845 43.2741H281.494ZM281.494 62.2842V80.2242H288.544C291.377 80.2242 294.839 80.2242 297.672 77.7063C299.938 75.692 300.379 73.237 300.379 71.2857C300.379 67.5088 299.057 64.928 295.909 63.4802C294.776 62.9766 292.699 62.2842 288.041 62.2842H281.494Z" fill="black"/>
<path d="M269.166 82.7421L263.563 68.9567H245.686L240.084 82.7421H237.062L254.751 39.4973L272.187 82.7421H269.166ZM246.693 66.4388H262.556L254.688 46.5474L246.693 66.4388Z" fill="black"/>
<path d="M219.469 40.7562H222.238V80.2242H233.947V82.7421H219.469V40.7562Z" fill="black"/>
</svg>
