<svg width="24" height="24" viewBox="0 0 24 24" fill="none" xmlns="http://www.w3.org/2000/svg">
<path fill-rule="evenodd" clip-rule="evenodd" d="M24 2.93222C24 1.31391 22.6861 0 21.0678 0H2.93222C1.31386 0 0 1.31391 0 2.93222V21.0678C0 22.6861 1.31391 24 2.93222 24H21.0678C22.6861 24 24 22.6861 24 21.0678V2.93222ZM18.4853 4.875L13.32 10.9089H13.3197L18.9375 19.125H14.8059L11.0229 13.5923L6.28658 19.125H5.0625L10.4794 12.7975L5.0625 4.875H9.19411L12.7763 10.1142L17.2613 4.875H18.4853ZM11.0946 12.0784L11.6435 12.8673V12.8676L15.3818 18.2411H17.2619L12.6808 11.656L12.132 10.8671L8.60774 5.80102H6.72763L11.0946 12.0784Z" fill="white"/>
</svg>
