<?xml version="1.0" encoding="UTF-8"?><svg id="icons" xmlns="http://www.w3.org/2000/svg" viewBox="0 0 200 200"><defs><style>.cls-1{fill:#fff;stroke-width:0px;}</style></defs><path class="cls-1" d="M100,55c24.81,0,45,20.19,45,45s-20.19,45-45,45-45-20.19-45-45,20.19-45,45-45M100,50c-27.61,0-50,22.39-50,50s22.39,50,50,50,50-22.39,50-50-22.39-50-50-50Z"/><path class="cls-1" d="M84.09,119.45l35.36-35.36c.98-.98.98-2.56,0-3.54-.98-.98-2.56-.98-3.54,0l-35.36,35.36c-.98.98-.98,2.56,0,3.54.98.98,2.56.98,3.54,0"/><path class="cls-1" d="M119.45,115.91l-35.36-35.36c-.98-.98-2.56-.98-3.54,0-.98.98-.98,2.56,0,3.54l35.36,35.36c.98.98,2.56.98,3.54,0,.98-.98.98-2.56,0-3.54"/></svg>