<?xml version="1.0" encoding="UTF-8"?><svg id="Icons" xmlns="http://www.w3.org/2000/svg" viewBox="0 0 240 240"><defs><style>.cls-1,.cls-2{fill:#FFF;stroke-width:0px;}.cls-2{fill-rule:evenodd;}</style></defs><path class="cls-2" d="M150,40h-60c-11.05,0-20,8.95-20,20v120c0,11.05,8.95,20,20,20h60c11.05,0,20-8.95,20-20V60c0-11.05-8.95-20-20-20ZM160,180c0,5.51-4.49,10-10,10h-60c-5.51,0-10-4.49-10-10v-10h80v10ZM160,160h-80V60c0-5.51,4.49-10,10-10h60c5.51,0,10,4.49,10,10v100Z"/><circle class="cls-1" cx="120" cy="60" r="5"/></svg>