<?xml version="1.0" encoding="UTF-8"?><svg id="icons" xmlns="http://www.w3.org/2000/svg" viewBox="0 0 200 200"><defs><style>.cls-1{fill:#fff;stroke-width:0px;}</style></defs><path class="cls-1" d="M80,82.5h40c1.38,0,2.5-1.12,2.5-2.5s-1.12-2.5-2.5-2.5h-40c-1.38,0-2.5,1.12-2.5,2.5s1.12,2.5,2.5,2.5"/><path class="cls-1" d="M80,122.5h40c1.38,0,2.5-1.12,2.5-2.5s-1.12-2.5-2.5-2.5h-40c-1.38,0-2.5,1.12-2.5,2.5s1.12,2.5,2.5,2.5"/><path class="cls-1" d="M80,102.5h40c1.38,0,2.5-1.12,2.5-2.5s-1.12-2.5-2.5-2.5h-40c-1.38,0-2.5,1.12-2.5,2.5s1.12,2.5,2.5,2.5"/><path class="cls-1" d="M100,55c24.81,0,45,20.19,45,45s-20.19,45-45,45-45-20.19-45-45,20.19-45,45-45M100,50c-27.61,0-50,22.39-50,50s22.39,50,50,50,50-22.39,50-50-22.39-50-50-50Z"/></svg>