<?xml version="1.0" encoding="UTF-8"?><svg id="icons" xmlns="http://www.w3.org/2000/svg" viewBox="0 0 200 200"><defs><style>.cls-1{fill:#fff;stroke-width:0px;}</style></defs><path class="cls-1" d="M145,55v90H55V55h90M150,50H50v100h100V50Z"/><path class="cls-1" d="M84.09,119.45l35.35-35.36c.98-.98.98-2.56,0-3.54-.98-.98-2.56-.98-3.54,0l-35.35,35.36c-.98.98-.98,2.56,0,3.54.98.98,2.56.98,3.54,0"/><path class="cls-1" d="M119.45,115.91l-35.35-35.36c-.98-.98-2.56-.98-3.54,0-.98.98-.98,2.56,0,3.54l35.35,35.36c.98.98,2.56.98,3.54,0,.98-.98.98-2.56,0-3.54"/></svg>