<?xml version="1.0" encoding="UTF-8"?><svg id="Icons" xmlns="http://www.w3.org/2000/svg" viewBox="0 0 240 240"><defs><style>.cls-1{fill:#FFF;stroke-width:0px;}</style></defs><path class="cls-1" d="M120,40L40,120h30l10,80h80l10.01-80h29.99L120,40ZM161.19,110l-1.1,8.76-8.92,71.24h-62.35l-8.9-71.24-1.09-8.76h-14.69l55.86-55.86,55.85,55.86h-14.67Z"/><path class="cls-1" d="M120,110.67c-5.88,0-11.24,2.4-15.09,6.25-3.85,3.84-6.25,9.21-6.25,15.09,0,5.88,2.4,11.24,6.25,15.08,3.84,3.85,9.21,6.25,15.09,6.25,5.88,0,11.24-2.4,15.08-6.25,3.85-3.85,6.25-9.21,6.25-15.08,0-5.88-2.4-11.24-6.25-15.09-3.85-3.85-9.21-6.25-15.08-6.25ZM128.01,140.01c-2.07,2.06-4.87,3.32-8.01,3.32-3.15,0-5.95-1.26-8.01-3.32-2.06-2.07-3.32-4.87-3.32-8.01,0-3.15,1.26-5.95,3.32-8.01,2.07-2.06,4.87-3.32,8.01-3.32,3.15,0,5.95,1.26,8.01,3.32,2.06,2.07,3.32,4.87,3.32,8.01,0,3.15-1.26,5.95-3.32,8.01Z"/></svg>