<?xml version="1.0" encoding="UTF-8"?><svg id="Icons" xmlns="http://www.w3.org/2000/svg" viewBox="0 0 240 240"><defs><style>.cls-1{fill:#FFF;stroke-width:0px;}</style></defs><path class="cls-1" d="M160,95.3v-20.3c0-2.76-2.24-5-5-5h-70c-2.76,0-5,2.24-5,5v20.3h80Z"/><path class="cls-1" d="M80,99.3v65.7c0,2.76,2.24,5,5,5h70c2.76,0,5-2.24,5-5v-65.7h-80ZM148,150.17h-56c-1.1,0-2-.9-2-2s.9-2,2-2h56c1.1,0,2,.9,2,2s-.9,2-2,2ZM148,134.83h-56c-1.1,0-2-.9-2-2s.9-2,2-2h56c1.1,0,2,.9,2,2s-.9,2-2,2ZM148,119.5h-56c-1.1,0-2-.9-2-2s.9-2,2-2h56c1.1,0,2,.9,2,2s-.9,2-2,2Z"/></svg>