<?xml version="1.0" encoding="UTF-8"?><svg id="Icons" xmlns="http://www.w3.org/2000/svg" viewBox="0 0 240 240"><defs><style>.cls-1{fill:#FFF;stroke-width:0px;}</style></defs><path class="cls-1" d="M159.81,147.45l-20.14-14.61c-.6-.44-1.43-.37-1.95.15l-6.43,6.43-10.19-7.15c-6.35-4.7-8.86-7.21-13.56-13.56l-7.15-10.19,6.43-6.43c.52-.52.59-1.35.15-1.95l-14.61-20.14c-.54-.75-1.63-.84-2.29-.18l-7.04,7.04c-3.05,3.05-2.58,7.31-2.18,11.61,0,0,6.37,18.81,24.02,36.46,15.15,15.15,36.46,23.83,36.46,23.83,4.06,1.59,8.64.97,11.73-2.11l6.92-6.92c.66-.66.57-1.74-.18-2.29Z"/></svg>