<?xml version="1.0" encoding="UTF-8"?><svg id="icons" xmlns="http://www.w3.org/2000/svg" viewBox="0 0 200 200"><defs><style>.cls-1{fill:#fff;stroke-width:0px;}</style></defs><path class="cls-1" d="M100,50c-27.61,0-50,22.39-50,50s22.39,50,50,50,50-22.39,50-50-22.39-50-50-50ZM120,122.5h-40c-1.38,0-2.5-1.12-2.5-2.5s1.12-2.5,2.5-2.5h40c1.38,0,2.5,1.12,2.5,2.5s-1.12,2.5-2.5,2.5ZM120,102.5h-40c-1.38,0-2.5-1.12-2.5-2.5s1.12-2.5,2.5-2.5h40c1.38,0,2.5,1.12,2.5,2.5s-1.12,2.5-2.5,2.5ZM120,82.5h-40c-1.38,0-2.5-1.12-2.5-2.5s1.12-2.5,2.5-2.5h40c1.38,0,2.5,1.12,2.5,2.5s-1.12,2.5-2.5,2.5Z"/></svg>