<?xml version="1.0" encoding="UTF-8"?><svg id="Icons" xmlns="http://www.w3.org/2000/svg" viewBox="0 0 240 240"><defs><style>.cls-1{fill:#FFF;stroke-width:0px;}</style></defs><path class="cls-1" d="M180,40.17H60c-11.05,0-20,8.95-20,20v89.83c0,11.05,8.95,20,20,20h30v20.08h-10v10h80v-10h-10v-20.08h30c11.05,0,20-8.95,20-20V60.17c0-11.05-8.95-20-20-20ZM60,50.17h120c5.51,0,10,4.49,10,10v70.46H50V60.17c0-5.51,4.49-10,10-10ZM140,190h-40v-20h40v20ZM180,160H60c-5.51,0-10-4.49-10-10v-9.37h140v9.37c0,5.51-4.49,10-10,10Z"/><circle class="cls-1" cx="120" cy="65" r="5"/></svg>