<?xml version="1.0" encoding="UTF-8"?><svg id="Icons" xmlns="http://www.w3.org/2000/svg" viewBox="0 0 240 240"><defs><style>.cls-1{fill:#FFF;stroke-width:0px;}</style></defs><path class="cls-1" d="M130.05,159.97H50.05c-5.52,0-10,4.48-10,10s4.48,10,10,10h80c5.52,0,10-4.48,10-10s-4.48-10-10-10ZM130.05,174.97H50.05c-2.76,0-5-2.24-5-5s2.24-5,5-5h80c2.76,0,5,2.24,5,5s-2.24,5-5,5Z"/><path class="cls-1" d="M160,110h-80c-5.52,0-10,4.48-10,10s4.48,10,10,10h80c5.52,0,10-4.48,10-10s-4.48-10-10-10ZM160,125h-80c-2.76,0-5-2.24-5-5s2.24-5,5-5h80c2.76,0,5,2.24,5,5s-2.24,5-5,5Z"/><path class="cls-1" d="M189.93,60.03h-80c-5.52,0-10,4.48-10,10s4.48,10,10,10h80c5.52,0,10-4.48,10-10s-4.48-10-10-10ZM189.93,75.03h-80c-2.76,0-5-2.24-5-5s2.24-5,5-5h80c2.76,0,5,2.24,5,5s-2.24,5-5,5Z"/></svg>