<?xml version="1.0" encoding="UTF-8"?><svg id="Icons" xmlns="http://www.w3.org/2000/svg" viewBox="0 0 240 240"><defs><style>.cls-1{fill:#FFF;stroke-width:0px;}</style></defs><path class="cls-1" d="M119.22,55.38c5.02,6.27,12.29,14.88,20.77,23.57,14.28,14.6,27.42,24.67,39.3,30.13-1.99,1.79-4.05,3.61-5.99,5.31l-3.41,2.99v72.58h-24.45v-69.85h-51.04v69.88l-24.28.03v-72.88l-3.71-3c-2.41-1.95-5.01-4.12-7.43-6.2,8.28-4.85,19.69-13.49,36-28.67,9.55-8.89,18.26-17.69,24.25-23.89M120,40s-58.75,63.91-78.55,63.91c-3.57,0,18.65,18,18.65,18v78.13l44.28-.06v-69.87h31.04v69.85h44.45v-78.05s20.52-18,19.03-18c-32.86,0-78.91-63.91-78.91-63.91h0Z"/></svg>