<?xml version="1.0" encoding="UTF-8"?><svg id="Icons" xmlns="http://www.w3.org/2000/svg" viewBox="0 0 240 240"><defs><style>.cls-1{fill:#FFF;stroke-width:0px;}</style></defs><path class="cls-1" d="M43.94,129.97h62c2.21,0,4-1.79,4-4V44.17c0-2.21-1.79-4-4-4h-62c-2.21,0-4,1.79-4,4v81.8c0,2.21,1.79,4,4,4ZM49.94,50.17h50v69.8h-50V50.17Z"/><path class="cls-1" d="M106,150h-62c-2.21,0-4,1.79-4,4v42c0,2.21,1.79,4,4,4h62c2.21,0,4-1.79,4-4v-42c0-2.21-1.79-4-4-4ZM100,190h-50v-30h50v30Z"/><path class="cls-1" d="M196,110.2h-62c-2.21,0-4,1.79-4,4v81.8c0,2.21,1.79,4,4,4h62c2.21,0,4-1.79,4-4v-81.8c0-2.21-1.79-4-4-4ZM190,190h-50v-69.8h50v69.8Z"/><path class="cls-1" d="M196,40h-62c-2.21,0-4,1.79-4,4v42c0,2.21,1.79,4,4,4h62c2.21,0,4-1.79,4-4v-42c0-2.21-1.79-4-4-4ZM190,80h-50v-30h50v30Z"/></svg>