<?xml version="1.0" encoding="UTF-8"?><svg id="icons" xmlns="http://www.w3.org/2000/svg" viewBox="0 0 200 200"><defs><style>.cls-1{fill:#fff;stroke-width:0px;}</style></defs><path class="cls-1" d="M137.55,95.12l-9.62,49.85h-55.86l-9.62-49.85c-.26-1.36-1.57-2.24-2.93-1.98-1.36.26-2.24,1.57-1.98,2.93l10.01,51.87c.23,1.18,1.26,2.03,2.45,2.03h59.98c1.2,0,2.23-.85,2.45-2.03l10.01-51.87c.26-1.36-.63-2.67-1.98-2.93-1.36-.26-2.67.63-2.93,1.98h0Z"/><path class="cls-1" d="M51.68,99.89l48.25-43.9,48.39,43.9c1.02.93,2.6.85,3.53-.17.93-1.02.85-2.6-.17-3.53l-50.07-45.43c-.96-.87-2.41-.87-3.36,0l-49.93,45.43c-1.02.93-1.1,2.51-.17,3.53.93,1.02,2.51,1.1,3.53.17h0Z"/><path class="cls-1" d="M108,119.7v25h-16v-25h16M113,114.7h-26v35h26v-35Z"/><path class="cls-1" d="M100,78.68c4.42,0,8,3.58,8,8s-3.58,8-8,8-8-3.58-8-8,3.58-8,8-8M100,73.68c-7.17,0-13,5.83-13,13s5.83,13,13,13,13-5.83,13-13-5.83-13-13-13Z"/></svg>