<?xml version="1.0" encoding="UTF-8"?><svg id="icons" xmlns="http://www.w3.org/2000/svg" viewBox="0 0 200.1 200.1"><defs><style>.cls-1{fill:#fff;stroke-width:0px;}</style></defs><path class="cls-1" d="M54.33,101.41l45.66-45.29,45.78,45.3c.98.97,2.56.96,3.54-.02.97-.98.96-2.56-.02-3.54l-47.54-47.04c-.98-.97-2.54-.96-3.52,0l-47.42,47.04c-.98.97-.99,2.56-.01,3.54.97.98,2.56.99,3.54.01h0Z"/><path class="cls-1" d="M57.56,100.69v46.82c0,.66.27,1.3.73,1.77.47.47,1.11.73,1.77.73h32c.66,0,1.3-.27,1.77-.73.47-.47.73-1.11.73-1.77v-22.44h11v22.44c0,.66.27,1.3.73,1.77.47.47,1.11.73,1.77.73h32c.66,0,1.3-.27,1.77-.73.47-.47.73-1.11.73-1.77V61.84c0-.67-.26-1.3-.73-1.77-.47-.47-1.11-.73-1.77-.73l-16,.05c-1.38,0-2.49,1.12-2.49,2.5v7.57c0,1.38,1.12,2.5,2.5,2.5s2.5-1.12,2.5-2.5v-5.08s11-.04,11-.04v80.66h-27v-22.44c0-.66-.27-1.3-.73-1.77-.47-.47-1.11-.73-1.77-.73h-16c-.66,0-1.3.27-1.77.73-.47.47-.73,1.11-.73,1.77v22.44h-27v-44.32c0-1.38-1.12-2.5-2.5-2.5s-2.5,1.12-2.5,2.5h0Z"/><path class="cls-1" d="M100.05,92.05c4.42,0,8,3.58,8,8s-3.58,8-8,8-8-3.58-8-8,3.58-8,8-8M100.05,87.05c-7.17,0-13,5.83-13,13s5.83,13,13,13,13-5.83,13-13-5.83-13-13-13Z"/></svg>