<?xml version="1.0" encoding="UTF-8"?><svg id="icons" xmlns="http://www.w3.org/2000/svg" viewBox="0 0 200 200"><defs><style>.cls-1{fill:#fff;stroke-width:0px;}</style></defs><path class="cls-1" d="M52.53,55.05h66.75c1.38,0,2.5-1.12,2.5-2.5s-1.12-2.5-2.5-2.5H52.53c-1.38,0-2.5,1.12-2.5,2.5s1.12,2.5,2.5,2.5"/><path class="cls-1" d="M52.53,149.95h66.75c1.38,0,2.5-1.12,2.5-2.5s-1.12-2.5-2.5-2.5H52.53c-1.38,0-2.5,1.12-2.5,2.5s1.12,2.5,2.5,2.5"/><path class="cls-1" d="M52.53,118.32h66.75c1.38,0,2.5-1.12,2.5-2.5s-1.12-2.5-2.5-2.5H52.53c-1.38,0-2.5,1.12-2.5,2.5s1.12,2.5,2.5,2.5"/><path class="cls-1" d="M52.53,86.68h66.75c1.38,0,2.5-1.12,2.5-2.5s-1.12-2.5-2.5-2.5H52.53c-1.38,0-2.5,1.12-2.5,2.5s1.12,2.5,2.5,2.5"/><path class="cls-1" d="M134.7,55.05h12.66c1.38,0,2.5-1.12,2.5-2.5s-1.12-2.5-2.5-2.5h-12.66c-1.38,0-2.5,1.12-2.5,2.5s1.12,2.5,2.5,2.5"/><path class="cls-1" d="M134.7,149.95h12.66c1.38,0,2.5-1.12,2.5-2.5s-1.12-2.5-2.5-2.5h-12.66c-1.38,0-2.5,1.12-2.5,2.5s1.12,2.5,2.5,2.5"/><path class="cls-1" d="M134.7,118.32h12.66c1.38,0,2.5-1.12,2.5-2.5s-1.12-2.5-2.5-2.5h-12.66c-1.38,0-2.5,1.12-2.5,2.5s1.12,2.5,2.5,2.5"/><path class="cls-1" d="M134.7,86.68h12.66c1.38,0,2.5-1.12,2.5-2.5s-1.12-2.5-2.5-2.5h-12.66c-1.38,0-2.5,1.12-2.5,2.5s1.12,2.5,2.5,2.5"/></svg>