<?xml version="1.0" encoding="UTF-8"?><svg id="icons" xmlns="http://www.w3.org/2000/svg" viewBox="0 0 200 200"><defs><style>.cls-1{fill:#fff;stroke-width:0px;}</style></defs><path class="cls-1" d="M99.91,52.55l-1.77-1.77-47.39,47.43c-.71.71-.93,1.79-.54,2.72.39.93,1.3,1.54,2.31,1.54h8.96s0,44.97,0,44.97c0,.66.27,1.3.73,1.77.47.47,1.11.73,1.77.73h28c.67,0,1.3-.26,1.77-.73.47-.47.73-1.1.73-1.77v-22.38h11v22.38c0,.66.27,1.3.73,1.77.47.47,1.11.73,1.77.73h28c.67,0,1.3-.26,1.77-.73.47-.47.73-1.1.73-1.77v-44.97h9c1.01,0,1.92-.61,2.31-1.54.39-.93.17-2.01-.55-2.73l-47.57-47.43c-.98-.98-2.56-.97-3.53,0l1.77,1.77-1.77,1.77,43.29,43.16h-5.46c-.66,0-1.3.27-1.77.73s-.73,1.11-.73,1.77v44.97h-23v-22.38c0-.66-.27-1.3-.73-1.77-.47-.47-1.11-.73-1.77-.73h-16c-.66,0-1.3.27-1.77.73s-.73,1.11-.73,1.77v22.38h-23v-44.96c0-1.38-1.12-2.5-2.5-2.5h-5.43s43.13-43.16,43.13-43.16l-1.77-1.77-1.77,1.77,1.77-1.77Z"/></svg>