<?xml version="1.0" encoding="UTF-8"?><svg id="Icons" xmlns="http://www.w3.org/2000/svg" viewBox="0 0 240 240"><defs><style>.cls-1,.cls-2{fill:#000;stroke-width:0px;}.cls-2{fill-rule:evenodd;}</style></defs><path class="cls-2" d="M200,40.17H40c-11.05,0-20,8.95-20,20v119.83c0,11.05,8.95,20,20,20h160c11.05,0,20-8.95,20-20V60.17c0-11.05-8.95-20-20-20ZM210,180c0,5.51-4.49,10-10,10H40c-5.51,0-10-4.49-10-10v-89.94h180v89.94ZM210,80.06H30v-19.89c0-5.51,4.49-10,10-10h160c5.51,0,10,4.49,10,10v19.89Z"/><circle class="cls-1" cx="45" cy="65.61" r="5"/><circle class="cls-1" cx="60" cy="65.61" r="5"/><circle class="cls-1" cx="75" cy="65.61" r="5"/></svg>