<?xml version="1.0" encoding="UTF-8"?><svg id="icons" xmlns="http://www.w3.org/2000/svg" viewBox="0 0 200 200"><defs><style>.cls-1{fill:#010326;stroke-width:0px;}</style></defs><path class="cls-1" d="M120,55c13.79,0,25,11.21,25,25v40c0,13.79-11.21,25-25,25h-40c-13.79,0-25-11.21-25-25v-40c0-13.79,11.21-25,25-25h40M120,50h-40c-16.57,0-30,13.43-30,30v40c0,16.57,13.43,30,30,30h40c16.57,0,30-13.43,30-30v-40c0-16.57-13.43-30-30-30Z"/><path class="cls-1" d="M84.09,119.45l35.35-35.36c.98-.98.98-2.56,0-3.54-.98-.98-2.56-.98-3.54,0l-35.35,35.36c-.98.98-.98,2.56,0,3.54.98.98,2.56.98,3.54,0"/><path class="cls-1" d="M119.45,115.91l-35.35-35.36c-.98-.98-2.56-.98-3.54,0-.98.98-.98,2.56,0,3.54l35.35,35.36c.98.98,2.56.98,3.54,0,.98-.98.98-2.56,0-3.54"/></svg>