<?xml version="1.0" encoding="UTF-8"?><svg id="Icons" xmlns="http://www.w3.org/2000/svg" viewBox="0 0 240 240"><defs><style>.cls-1{fill:#000;stroke-width:0px;}</style></defs><path class="cls-1" d="M154.94,96h-34.94l-4.5-5.63c-.95-1.18-2.38-1.87-3.9-1.87h-23.21c-1.52,0-2.95.69-3.9,1.87l-3.41,4.26c-.71.89-1.1,1.99-1.1,3.13v53.19c0,2.79,2.26,5.06,5.06,5.06h69.89c2.79,0,5.06-2.26,5.06-5.06v-49.89c0-2.79-2.26-5.06-5.06-5.06ZM152.5,106h-65c-1.38,0-2.5-1.12-2.5-2.5s1.12-2.5,2.5-2.5h65c1.38,0,2.5,1.12,2.5,2.5s-1.12,2.5-2.5,2.5Z"/></svg>