<?xml version="1.0" encoding="UTF-8"?><svg id="icons" xmlns="http://www.w3.org/2000/svg" viewBox="0 0 200 200"><defs><style>.cls-1{fill:#010326;stroke-width:0px;}</style></defs><path class="cls-1" d="M50,50v100h100V50H50ZM120.56,122.78h-40c-1.38,0-2.5-1.12-2.5-2.5s1.12-2.5,2.5-2.5h40c1.38,0,2.5,1.12,2.5,2.5s-1.12,2.5-2.5,2.5ZM120.56,102.78h-40c-1.38,0-2.5-1.12-2.5-2.5s1.12-2.5,2.5-2.5h40c1.38,0,2.5,1.12,2.5,2.5s-1.12,2.5-2.5,2.5ZM120.56,82.78h-40c-1.38,0-2.5-1.12-2.5-2.5s1.12-2.5,2.5-2.5h40c1.38,0,2.5,1.12,2.5,2.5s-1.12,2.5-2.5,2.5Z"/></svg>