<?xml version="1.0" encoding="UTF-8"?><svg id="icons" xmlns="http://www.w3.org/2000/svg" viewBox="0 0 200 200"><defs><style>.cls-1{fill:#010326;stroke-width:0px;}</style></defs><path class="cls-1" d="M146.44,56.72v90H56.44V56.72h90M151.44,51.72H51.44v100h100V51.72Z"/><path class="cls-1" d="M82,84.5h40c1.38,0,2.5-1.12,2.5-2.5s-1.12-2.5-2.5-2.5h-40c-1.38,0-2.5,1.12-2.5,2.5s1.12,2.5,2.5,2.5"/><path class="cls-1" d="M82,124.5h40c1.38,0,2.5-1.12,2.5-2.5s-1.12-2.5-2.5-2.5h-40c-1.38,0-2.5,1.12-2.5,2.5s1.12,2.5,2.5,2.5"/><path class="cls-1" d="M82,104.5h40c1.38,0,2.5-1.12,2.5-2.5s-1.12-2.5-2.5-2.5h-40c-1.38,0-2.5,1.12-2.5,2.5s1.12,2.5,2.5,2.5"/></svg>