<svg width="100" height="100" viewBox="0 0 14 14" fill="none" xmlns="http://www.w3.org/2000/svg">
<rect x="14" y="2" width="2" height="2" transform="rotate(-180 14 2)" fill="white"/>
<rect x="8" y="2" width="2" height="2" transform="rotate(-180 8 2)" fill="white"/>
<rect x="2" y="2" width="2" height="2" transform="rotate(-180 2 2)" fill="white"/>
<rect x="14" y="8" width="2" height="2" transform="rotate(-180 14 8)" fill="white"/>
<rect x="8" y="8" width="2" height="2" transform="rotate(-180 8 8)" fill="white"/>
<rect x="2" y="8" width="2" height="2" transform="rotate(-180 2 8)" fill="white"/>
<rect x="14" y="14" width="2" height="2" transform="rotate(-180 14 14)" fill="white"/>
<rect x="8" y="14" width="2" height="2" transform="rotate(-180 8 14)" fill="white"/>
<rect x="2" y="14" width="2" height="2" transform="rotate(-180 2 14)" fill="white"/>
</svg>
