<?xml version="1.0" encoding="UTF-8"?><svg id="Icons" xmlns="http://www.w3.org/2000/svg" viewBox="0 0 240 240"><defs><style>.cls-1{fill:#000;stroke-width:0px;}</style></defs><path class="cls-1" d="M102.44,87.22v18.22h0s0,30.77,0,30.77c0,4.24-3.5,7.52-7.74,7.5-.03,0-.06,0-.09,0-6.53,0-11.83,4.43-11.83,9.9s5.29,9.9,11.83,9.9,11.83-4.43,11.83-9.9v-48.69l36.99-4.93v27.63c0,4.24-3.5,7.52-7.74,7.5-.03,0-.06,0-.09,0-6.53,0-11.83,4.43-11.83,9.9s5.29,9.9,11.83,9.9,11.83-4.43,11.83-9.9v-63.78l-45,6Z"/></svg>