<?xml version="1.0" encoding="UTF-8"?><svg id="Icons" xmlns="http://www.w3.org/2000/svg" viewBox="0 0 240 240"><defs><style>.cls-1{fill:#000;stroke-width:0px;}</style></defs><path class="cls-1" d="M163.3,120.55h0c2.24-3.98,3.46-8.61,3.3-13.53-.46-13.76-11.99-24.9-25.75-24.92-8.42-.01-15.9,4.01-20.62,10.24-5.17-6.82-13.64-11-23.04-10.13-12.18,1.13-22.03,10.93-23.22,23.1-.52,5.34.59,10.38,2.88,14.69h0v.02s.01,0,.01,0c.78,1.46,1.8,2.78,3.02,3.9l40.12,36.75,40.94-37.16c.94-.85,1.74-1.85,2.36-2.96h0s0,0,0,0Z"/></svg>