<?xml version="1.0" encoding="UTF-8"?><svg id="Icons" xmlns="http://www.w3.org/2000/svg" viewBox="0 0 240 240"><defs><style>.cls-1{fill:#000;stroke-width:0px;}</style></defs><path class="cls-1" d="M160.43,97.3c-.21-4.13-3.52-7.43-7.64-7.64l-1.56-.08c-20.8-1.04-41.65-1.04-62.45,0l-1.56.08c-4.14.21-7.44,3.52-7.65,7.66-.76,15.12-.76,30.27,0,45.39.21,4.14,3.51,7.46,7.65,7.66h.01c21.84,1.09,43.71,1.09,65.55,0,4.13-.21,7.44-3.51,7.64-7.64.76-15.14.76-30.31,0-45.45ZM111.7,133v-26l22.83,13-22.83,13Z"/></svg>