<?xml version="1.0" encoding="UTF-8"?><svg id="Icons" xmlns="http://www.w3.org/2000/svg" viewBox="0 0 240 240"><defs><style>.cls-1{fill:#000;stroke-width:0px;}</style></defs><path class="cls-1" d="M190,60H50c-5.52,0-10,4.48-10,10s4.48,10,10,10h140c5.52,0,10-4.48,10-10s-4.48-10-10-10ZM190,75H50c-2.76,0-5-2.24-5-5s2.24-5,5-5h140c2.76,0,5,2.24,5,5s-2.24,5-5,5Z"/><path class="cls-1" d="M160,110.01h-80c-5.52,0-10,4.48-10,10s4.48,10,10,10h80c5.52,0,10-4.48,10-10s-4.48-10-10-10ZM160,125.01h-80c-2.76,0-5-2.24-5-5s2.24-5,5-5h80c2.76,0,5,2.24,5,5s-2.24,5-5,5Z"/><path class="cls-1" d="M140,160h-40c-5.52,0-10,4.48-10,10s4.48,10,10,10h40c5.52,0,10-4.48,10-10s-4.48-10-10-10ZM140,175h-40c-2.76,0-5-2.24-5-5s2.24-5,5-5h40c2.76,0,5,2.24,5,5s-2.24,5-5,5Z"/></svg>