<?xml version="1.0" encoding="UTF-8"?><svg id="icons" xmlns="http://www.w3.org/2000/svg" viewBox="0 0 200 200"><defs><style>.cls-1{fill:#010326;stroke-width:0px;}</style></defs><path class="cls-1" d="M120,55c13.79,0,25,11.21,25,25v40c0,13.79-11.21,25-25,25h-40c-13.79,0-25-11.21-25-25v-40c0-13.79,11.21-25,25-25h40M120,50h-40c-16.57,0-30,13.43-30,30v40c0,16.57,13.43,30,30,30h40c16.57,0,30-13.43,30-30v-40c0-16.57-13.43-30-30-30Z"/><path class="cls-1" d="M78.49,105.92l9.88,10.6c.46.5,1.11.78,1.79.8.68.01,1.34-.26,1.81-.74l29.47-29.63c.97-.98.97-2.56,0-3.54-.98-.97-2.56-.97-3.54,0l-27.64,27.79-8.11-8.7c-.94-1.01-2.52-1.07-3.53-.12-1.01.94-1.07,2.52-.12,3.53h0Z"/></svg>