<?xml version="1.0" encoding="UTF-8"?><svg id="icons" xmlns="http://www.w3.org/2000/svg" viewBox="0 0 200 200"><defs><style>.cls-1{fill:#010326;stroke-width:0px;}</style></defs><path class="cls-1" d="M52.56,55.05h94.88c1.38,0,2.5-1.12,2.5-2.5s-1.12-2.5-2.5-2.5H52.56c-1.38,0-2.5,1.12-2.5,2.5s1.12,2.5,2.5,2.5"/><path class="cls-1" d="M52.56,149.95h94.88c1.38,0,2.5-1.12,2.5-2.5s-1.12-2.5-2.5-2.5H52.56c-1.38,0-2.5,1.12-2.5,2.5s1.12,2.5,2.5,2.5"/><path class="cls-1" d="M52.56,102.53h94.88c1.38,0,2.5-1.12,2.5-2.5s-1.12-2.5-2.5-2.5H52.56c-1.38,0-2.5,1.12-2.5,2.5s1.12,2.5,2.5,2.5"/></svg>