<?xml version="1.0" encoding="UTF-8"?><svg id="icons" xmlns="http://www.w3.org/2000/svg" viewBox="0 0 200 200"><defs><style>.cls-1{fill:#010326;stroke-width:0px;}</style></defs><path class="cls-1" d="M135.97,88.51h2.5v-20.43c0-.67-.26-1.3-.74-1.77-.47-.47-1.11-.73-1.78-.73l-10,.05c-1.37,0-2.49,1.13-2.49,2.5v4.38s-21.8-21.73-21.8-21.73c-.98-.98-2.56-.97-3.53,0l-47.39,47.43c-.71.71-.93,1.79-.54,2.72.39.93,1.3,1.54,2.31,1.54h8.96s0,44.97,0,44.97c0,.66.27,1.3.73,1.77.47.47,1.11.73,1.77.73h28c.67,0,1.3-.26,1.77-.73s.73-1.1.73-1.77v-22.38h11v22.38c0,.66.27,1.3.73,1.77.47.47,1.11.73,1.77.73h28c.67,0,1.3-.26,1.77-.73s.73-1.1.73-1.77v-44.97h9c1.01,0,1.92-.61,2.31-1.54.39-.93.17-2.01-.55-2.73l-11.51-11.47-1.77,1.77h2.5-2.5l-1.77,1.77,7.23,7.2h-5.46c-.66,0-1.3.27-1.77.73-.47.47-.73,1.11-.73,1.77v44.97h-23v-22.38c0-.66-.27-1.3-.73-1.77-.47-.47-1.11-.73-1.77-.73h-16c-.66,0-1.3.27-1.77.73-.47.47-.73,1.11-.73,1.77v22.38h-23v-44.96c0-1.38-1.12-2.5-2.5-2.5h-5.43s41.36-41.4,41.36-41.4l24.31,24.23c.72.71,1.79.93,2.72.54s1.54-1.3,1.54-2.31v-7.93s4.99-.03,4.99-.03v17.91c0,.67.26,1.3.74,1.77l1.77-1.77Z"/></svg>