<?xml version="1.0" encoding="UTF-8"?><svg id="icons" xmlns="http://www.w3.org/2000/svg" viewBox="0 0 200 200"><defs><style>.cls-1{fill:#010326;stroke-width:0px;}</style></defs><path class="cls-1" d="M100,55c24.81,0,45,20.19,45,45s-20.19,45-45,45-45-20.19-45-45,20.19-45,45-45M100,50h0c-27.61,0-50,22.39-50,50s22.39,50,50,50,50-22.39,50-50-22.39-50-50-50Z"/><path class="cls-1" d="M78.49,105.92l9.88,10.6c.46.5,1.11.78,1.79.8.68.01,1.34-.26,1.81-.74l29.47-29.63c.97-.98.97-2.56,0-3.54-.98-.97-2.56-.97-3.54,0l-27.64,27.79-8.11-8.7c-.94-1.01-2.52-1.07-3.53-.12-1.01.94-1.07,2.52-.12,3.53h0Z"/></svg>