<?xml version="1.0" encoding="UTF-8"?><svg id="icons" xmlns="http://www.w3.org/2000/svg" viewBox="0 0 200 200"><defs><style>.cls-1{fill:#010326;stroke-width:0px;}</style></defs><path class="cls-1" d="M64,100h-2.5v47.46c0,.66.27,1.3.73,1.77.47.47,1.11.73,1.77.73h71.99c.67,0,1.3-.26,1.77-.73.47-.47.73-1.1.73-1.77v-44.97h9c1.01,0,1.92-.61,2.31-1.54.39-.93.17-2.01-.55-2.73l-47.57-47.43c-.98-.98-2.56-.97-3.53,0l-47.39,47.43c-.71.71-.93,1.79-.54,2.72s1.3,1.54,2.31,1.54h11.46s0-2.5,0-2.5h-2.5,2.5v-2.5s-5.43,0-5.43,0l41.36-41.39,41.52,41.39h-5.46c-.66,0-1.3.27-1.77.73s-.73,1.11-.73,1.77v44.97h-66.99v-44.96c0-1.38-1.12-2.5-2.5-2.5v2.5Z"/><path class="cls-1" d="M108,119.7v25h-16v-25h16M113,114.7h-26v35h26v-35Z"/></svg>