<?xml version="1.0" encoding="UTF-8"?><svg id="icons" xmlns="http://www.w3.org/2000/svg" viewBox="0 0 200 200"><defs><style>.cls-1{fill:#010326;stroke-width:0px;}</style></defs><path class="cls-1" d="M137.54,94l-9.62,50.96h-55.84l-9.62-50.96c-.26-1.36-1.56-2.25-2.92-1.99-1.36.26-2.25,1.56-1.99,2.92l10.01,52.99c.22,1.18,1.26,2.04,2.46,2.04h59.98c1.2,0,2.23-.86,2.46-2.04l10.01-52.99c.26-1.36-.64-2.66-1.99-2.92-1.36-.26-2.66.64-2.92,1.99h0Z"/><path class="cls-1" d="M51.73,99.84l48.2-46.37,48.34,46.38c1,.96,2.58.92,3.53-.07.96-1,.92-2.58-.07-3.53l-50.07-48.04c-.97-.93-2.5-.93-3.46,0l-49.93,48.04c-1,.96-1.03,2.54-.07,3.54.96.99,2.54,1.03,3.54.07h0Z"/><path class="cls-1" d="M108,119.7v25h-16v-25h16M113,114.7h-26v35h26v-35Z"/></svg>