<?xml version="1.0" encoding="UTF-8"?><svg xmlns="http://www.w3.org/2000/svg" viewBox="0 0 200 200"><defs><style>.cls-1{fill:none;stroke:#010326;stroke-miterlimit:10;stroke-width:.1px;}.cls-2{fill:#010326;}</style></defs><g id="Grid"><rect class="cls-1" x="-3.67" width="200" height="200"/><circle class="cls-1" cx="96.33" cy="100" r="100"/><circle class="cls-1" cx="96.33" cy="100" r="70.8"/><circle class="cls-1" cx="96.33" cy="100" r="49.52"/><circle class="cls-1" cx="96.33" cy="100" r="25"/><line class="cls-1" x1="-3.67" y1="200" x2="196.33"/><line class="cls-1" x1="-3.67" x2="196.33" y2="200"/><rect class="cls-1" x="-3.67" y="50" width="200" height="100"/><line class="cls-1" x1="-3.67" y1="100" x2="196.33" y2="100"/><rect class="cls-1" x="46.33" y="0" width="100" height="200"/><line class="cls-1" x1="96.33" x2="96.33" y2="200"/><rect class="cls-1" x="25.52" y="29.2" width="141.61" height="141.61"/></g><g id="Layer_3"><path class="cls-2" d="m80,82.5h40c1.38,0,2.5-1.12,2.5-2.5s-1.12-2.5-2.5-2.5h-40c-1.38,0-2.5,1.12-2.5,2.5s1.12,2.5,2.5,2.5"/><path class="cls-2" d="m80,122.5h40c1.38,0,2.5-1.12,2.5-2.5s-1.12-2.5-2.5-2.5h-40c-1.38,0-2.5,1.12-2.5,2.5s1.12,2.5,2.5,2.5"/><path class="cls-2" d="m80,102.5h40c1.38,0,2.5-1.12,2.5-2.5s-1.12-2.5-2.5-2.5h-40c-1.38,0-2.5,1.12-2.5,2.5s1.12,2.5,2.5,2.5"/><path class="cls-2" d="m99.44,54.72c24.81,0,45,20.19,45,45s-20.19,45-45,45-45-20.19-45-45,20.19-45,45-45m0-5c-27.61,0-50,22.39-50,50s22.39,50,50,50,50-22.39,50-50-22.39-50-50-50Z"/></g></svg>