<?xml version="1.0" encoding="UTF-8"?><svg xmlns="http://www.w3.org/2000/svg" viewBox="0 0 200 200"><defs><style>.cls-1{fill:none;stroke:#010326;stroke-miterlimit:10;stroke-width:.1px;}.cls-2{fill:#010326;}</style></defs><g id="Grid"><rect class="cls-1" x="0" y="0" width="200" height="200"/><circle class="cls-1" cx="100" cy="100" r="100"/><circle class="cls-1" cx="100" cy="100" r="70.8"/><circle class="cls-1" cx="100" cy="100" r="50"/><circle class="cls-1" cx="100" cy="100" r="25"/><line class="cls-1" x1="0" y1="200" x2="200" y2="0"/><line class="cls-1" x1="0" y1="0" x2="200" y2="200"/><rect class="cls-1" x="0" y="50" width="200" height="100"/><line class="cls-1" x1="0" y1="100" x2="200" y2="100"/><rect class="cls-1" x="50" y="0" width="100" height="200"/><line class="cls-1" x1="100" y1="0" x2="100" y2="200"/><rect class="cls-1" x="29.2" y="29.2" width="141.61" height="141.61"/></g><g id="Layer_3"><circle class="cls-2" cx="100" cy="100.27" r="6"/><circle class="cls-2" cx="100" cy="125.27" r="6"/><circle class="cls-2" cx="100" cy="75.27" r="6"/><path class="cls-2" d="m144.99,55v90H54.99V55h90m5-5H49.99v100h100V50Z"/></g></svg>