<?xml version="1.0" encoding="UTF-8"?><svg xmlns="http://www.w3.org/2000/svg" viewBox="0 0 200 200"><defs><style>.cls-1{fill:none;stroke:#010326;stroke-miterlimit:10;stroke-width:.1px;}.cls-2{fill:#010326;}</style></defs><g id="Grid"><rect class="cls-1" width="200" height="200"/><circle class="cls-1" cx="100" cy="100" r="100"/><circle class="cls-1" cx="100" cy="100" r="70.8"/><circle class="cls-1" cx="100" cy="100" r="49.52"/><circle class="cls-1" cx="100" cy="100" r="25"/><line class="cls-1" y1="200" x2="200"/><line class="cls-1" x2="200" y2="200"/><rect class="cls-1" x="0" y="50" width="200" height="100"/><line class="cls-1" y1="100" x2="200" y2="100"/><rect class="cls-1" x="50" y="0" width="100" height="200"/><line class="cls-1" x1="100" x2="100" y2="200"/><rect class="cls-1" x="29.2" y="29.2" width="141.61" height="141.61"/></g><g id="Layer_3"><path class="cls-2" d="m145,55v90H55V55h90m5-5H50v100h100V50Z"/><path class="cls-2" d="m84.09,119.45l35.35-35.36c.98-.98.98-2.56,0-3.54-.98-.98-2.56-.98-3.54,0l-35.35,35.36c-.98.98-.98,2.56,0,3.54.98.98,2.56.98,3.54,0"/><path class="cls-2" d="m119.45,115.91l-35.35-35.36c-.98-.98-2.56-.98-3.54,0-.98.98-.98,2.56,0,3.54l35.35,35.36c.98.98,2.56.98,3.54,0,.98-.98.98-2.56,0-3.54"/></g></svg>