<?xml version="1.0" encoding="UTF-8"?><svg xmlns="http://www.w3.org/2000/svg" viewBox="0 0 200 200"><defs><style>.cls-1{fill:none;stroke:#010326;stroke-miterlimit:10;stroke-width:.1px;}.cls-2{fill:#010326;}</style></defs><g id="Grid"><rect class="cls-1" x="0" y="0" width="200" height="200"/><circle class="cls-1" cx="100" cy="100" r="100"/><circle class="cls-1" cx="100" cy="100" r="70.8"/><circle class="cls-1" cx="100" cy="100" r="49.52"/><circle class="cls-1" cx="100" cy="100" r="25"/><line class="cls-1" x1="0" y1="200" x2="200" y2="0"/><line class="cls-1" x1="0" y1="0" x2="200" y2="200"/><rect class="cls-1" x="0" y="50" width="200" height="100"/><line class="cls-1" x1="0" y1="100" x2="200" y2="100"/><rect class="cls-1" x="50" y="0" width="100" height="200"/><line class="cls-1" x1="100" y1="0" x2="100" y2="200"/><rect class="cls-1" x="29.2" y="29.2" width="141.61" height="141.61"/></g><g id="Layer_3"><path class="cls-2" d="m137.54,94l-9.62,50.96h-55.84l-9.62-50.96c-.26-1.36-1.56-2.25-2.92-1.99-1.36.26-2.25,1.56-1.99,2.92l10.01,52.99c.22,1.18,1.26,2.04,2.46,2.04h59.98c1.2,0,2.23-.86,2.46-2.04l10.01-52.99c.26-1.36-.64-2.66-1.99-2.92-1.36-.26-2.66.64-2.92,1.99h0Z"/><path class="cls-2" d="m51.73,99.84l48.2-46.37,48.34,46.38c1,.96,2.58.92,3.53-.07.96-1,.92-2.58-.07-3.53l-50.07-48.04c-.97-.93-2.5-.93-3.46,0l-49.93,48.04c-1,.96-1.03,2.54-.07,3.54.96.99,2.54,1.03,3.54.07h0Z"/><path class="cls-2" d="m108,119.7v25h-16v-25h16m5-5h-26v35h26v-35Z"/></g></svg>