<?xml version="1.0" encoding="UTF-8"?><svg xmlns="http://www.w3.org/2000/svg" viewBox="0 0 200 200"><defs><style>.cls-1{fill:none;stroke:#010326;stroke-miterlimit:10;stroke-width:.1px;}.cls-2{fill:#010326;}</style></defs><g id="Grid"><rect class="cls-1" x="0" y="0" width="200" height="200"/><circle class="cls-1" cx="100" cy="100" r="100"/><circle class="cls-1" cx="100" cy="100" r="70.8"/><circle class="cls-1" cx="100" cy="100" r="50"/><circle class="cls-1" cx="100" cy="100" r="25"/><line class="cls-1" x1="0" y1="200" x2="200" y2="0"/><line class="cls-1" x1="0" y1="0" x2="200" y2="200"/><rect class="cls-1" x="0" y="50" width="200" height="100"/><line class="cls-1" x1="0" y1="100" x2="200" y2="100"/><rect class="cls-1" x="50" y="0" width="100" height="200"/><line class="cls-1" x1="100" y1="0" x2="100" y2="200"/><rect class="cls-1" x="29.2" y="29.2" width="141.61" height="141.61"/></g><g id="Layer_3"><path class="cls-2" d="m145,55v90H55V55h90m5-5H50v100h100V50Z"/><path class="cls-2" d="m78.49,105.92l9.88,10.6c.46.5,1.11.78,1.79.8.68.01,1.34-.26,1.81-.74l29.47-29.63c.97-.98.97-2.56,0-3.54-.98-.97-2.56-.97-3.54,0l-27.64,27.79-8.11-8.7c-.94-1.01-2.52-1.07-3.53-.12-1.01.94-1.07,2.52-.12,3.53h0Z"/></g></svg>