<?xml version="1.0" encoding="UTF-8"?><svg xmlns="http://www.w3.org/2000/svg" viewBox="0 0 200 200"><defs><style>.cls-1{fill:none;stroke:#010326;stroke-miterlimit:10;stroke-width:.1px;}.cls-2{fill:#010326;}</style></defs><g id="Grid"><rect class="cls-1" x="0" y="0" width="200" height="200"/><circle class="cls-1" cx="100" cy="100" r="100"/><circle class="cls-1" cx="100" cy="100" r="70.8"/><circle class="cls-1" cx="100" cy="100" r="49.52"/><circle class="cls-1" cx="100" cy="100" r="25"/><line class="cls-1" x1="0" y1="200" x2="200" y2="0"/><line class="cls-1" x1="0" y1="0" x2="200" y2="200"/><rect class="cls-1" x="0" y="50" width="200" height="100"/><line class="cls-1" x1="0" y1="100" x2="200" y2="100"/><rect class="cls-1" x="50" y="0" width="100" height="200"/><line class="cls-1" x1="100" y1="0" x2="100" y2="200"/><rect class="cls-1" x="29.2" y="29.2" width="141.61" height="141.61"/></g><g id="Layer_3"><path class="cls-2" d="m137.55,95.12l-9.62,49.85h-55.86l-9.62-49.85c-.26-1.36-1.57-2.24-2.93-1.98-1.36.26-2.24,1.57-1.98,2.93l10.01,51.87c.23,1.18,1.26,2.03,2.45,2.03h59.98c1.2,0,2.23-.85,2.45-2.03l10.01-51.87c.26-1.36-.63-2.67-1.98-2.93-1.36-.26-2.67.63-2.93,1.98h0Z"/><path class="cls-2" d="m51.68,99.89l48.25-43.9,48.39,43.9c1.02.93,2.6.85,3.53-.17.93-1.02.85-2.6-.17-3.53l-50.07-45.43c-.96-.87-2.41-.87-3.36,0l-49.93,45.43c-1.02.93-1.1,2.51-.17,3.53.93,1.02,2.51,1.1,3.53.17h0Z"/><path class="cls-2" d="m108,119.7v25h-16v-25h16m5-5h-26v35h26v-35Z"/><path class="cls-2" d="m100,78.68c4.42,0,8,3.58,8,8s-3.58,8-8,8-8-3.58-8-8,3.58-8,8-8m0-5c-7.17,0-13,5.83-13,13s5.83,13,13,13,13-5.83,13-13-5.83-13-13-13Z"/></g></svg>