<?xml version="1.0" encoding="UTF-8"?><svg xmlns="http://www.w3.org/2000/svg" viewBox="0 0 200 200"><defs><style>.cls-1{fill:none;stroke:#010326;stroke-miterlimit:10;stroke-width:.1px;}.cls-2{fill:#010326;}</style></defs><g id="Grid"><rect class="cls-1" width="200" height="200"/><circle class="cls-1" cx="100" cy="100" r="100"/><circle class="cls-1" cx="100" cy="100" r="70.8"/><circle class="cls-1" cx="100" cy="100" r="49.52"/><circle class="cls-1" cx="100" cy="100" r="25"/><line class="cls-1" y1="200" x2="200"/><line class="cls-1" x2="200" y2="200"/><rect class="cls-1" x="0" y="50" width="200" height="100"/><line class="cls-1" y1="100" x2="200" y2="100"/><rect class="cls-1" x="50" y="0" width="100" height="200"/><line class="cls-1" x1="100" x2="100" y2="200"/><rect class="cls-1" x="29.2" y="29.2" width="141.61" height="141.61"/></g><g id="Layer_3"><path class="cls-2" d="m99.93,69.84l45.07,27.02v48.13H55v-48.14l44.93-27.02m0-5.83l-49.93,30.02v55.96h100v-55.96l-50.07-30.02Z"/><path class="cls-2" d="m51.29,85.02l48.64-29.25,48.78,29.25c1.18.71,2.72.33,3.43-.86.71-1.18.33-2.72-.86-3.43l-50.07-30.02c-.79-.48-1.78-.48-2.57,0l-49.93,30.02c-1.18.71-1.57,2.25-.85,3.43.71,1.18,2.25,1.57,3.43.85h0Z"/></g></svg>