<?xml version="1.0" encoding="UTF-8"?><svg xmlns="http://www.w3.org/2000/svg" viewBox="0 0 200.1 200.1"><defs><style>.cls-1{fill:none;stroke:#010326;stroke-miterlimit:10;stroke-width:.1px;}.cls-2{fill:#010326;}</style></defs><g id="Grid"><rect class="cls-1" x=".05" y=".05" width="200" height="200"/><circle class="cls-1" cx="100.05" cy="100.05" r="100"/><circle class="cls-1" cx="100.05" cy="100.05" r="70.8"/><circle class="cls-1" cx="100.05" cy="100.05" r="50"/><circle class="cls-1" cx="100.05" cy="100.05" r="25"/><line class="cls-1" x1=".05" y1="200.05" x2="200.05" y2=".05"/><line class="cls-1" x1=".05" y1=".05" x2="200.05" y2="200.05"/><rect class="cls-1" x=".05" y="50.05" width="200" height="100"/><line class="cls-1" x1=".05" y1="100.05" x2="200.05" y2="100.05"/><rect class="cls-1" x="50.05" y=".05" width="100" height="200"/><line class="cls-1" x1="100.05" y1=".05" x2="100.05" y2="200.05"/><rect class="cls-1" x="29.25" y="29.25" width="141.61" height="141.61"/></g><g id="Layer_3"><path class="cls-2" d="m54.33,101.41l45.66-45.29,45.78,45.3c.98.97,2.56.96,3.54-.02.97-.98.96-2.56-.02-3.54l-47.54-47.04c-.98-.97-2.54-.96-3.52,0l-47.42,47.04c-.98.97-.99,2.56-.01,3.54.97.98,2.56.99,3.54.01h0Z"/><path class="cls-2" d="m57.56,100.69v46.82c0,.66.27,1.3.73,1.77.47.47,1.11.73,1.77.73h32c.66,0,1.3-.27,1.77-.73.47-.47.73-1.11.73-1.77v-22.44h11v22.44c0,.66.27,1.3.73,1.77.47.47,1.11.73,1.77.73h32c.66,0,1.3-.27,1.77-.73.47-.47.73-1.11.73-1.77V61.84c0-.67-.26-1.3-.73-1.77-.47-.47-1.11-.73-1.77-.73l-16,.05c-1.38,0-2.49,1.12-2.49,2.5v7.57c0,1.38,1.12,2.5,2.5,2.5s2.5-1.12,2.5-2.5v-5.08s11-.04,11-.04v80.66h-27v-22.44c0-.66-.27-1.3-.73-1.77-.47-.47-1.11-.73-1.77-.73h-16c-.66,0-1.3.27-1.77.73-.47.47-.73,1.11-.73,1.77v22.44h-27v-44.32c0-1.38-1.12-2.5-2.5-2.5s-2.5,1.12-2.5,2.5h0Z"/><path class="cls-2" d="m100.05,92.05c4.42,0,8,3.58,8,8s-3.58,8-8,8-8-3.58-8-8,3.58-8,8-8m0-5c-7.17,0-13,5.83-13,13s5.83,13,13,13,13-5.83,13-13-5.83-13-13-13Z"/></g></svg>