<?xml version="1.0" encoding="UTF-8"?><svg xmlns="http://www.w3.org/2000/svg" viewBox="0 0 200 200"><defs><style>.cls-1{fill:none;stroke:#010326;stroke-miterlimit:10;stroke-width:.1px;}.cls-2{fill:#010326;}</style></defs><g id="Grid"><rect class="cls-1" x="0" y="0" width="200" height="200"/><circle class="cls-1" cx="100" cy="100" r="100"/><circle class="cls-1" cx="100" cy="100" r="70.8"/><circle class="cls-1" cx="100" cy="100" r="50"/><circle class="cls-1" cx="100" cy="100" r="25"/><line class="cls-1" x1="0" y1="200" x2="200" y2="0"/><line class="cls-1" x1="0" y1="0" x2="200" y2="200"/><rect class="cls-1" x="0" y="50" width="200" height="100"/><line class="cls-1" x1="0" y1="100" x2="200" y2="100"/><rect class="cls-1" x="50" y="0" width="100" height="200"/><line class="cls-1" x1="100" y1="0" x2="100" y2="200"/><rect class="cls-1" x="29.2" y="29.2" width="141.61" height="141.61"/></g><g id="Layer_3"><path class="cls-2" d="m99.93,56.41l45.07,36.03v52.56h-32v-19.88c0-2.76-2.24-5-5-5h-16c-2.76,0-5,2.24-5,5v19.88h-32v-52.57l44.93-36.03m0-6.41l-49.93,40.03v59.97h42v-24.88h16v24.88h42v-59.97l-50.07-40.03Z"/></g></svg>